<svg width="325" height="38" viewBox="0 0 325 38" fill="none" xmlns="http://www.w3.org/2000/svg">
<path d="M180.262 32.2514H125.006V14.1346L140.179 1H165.995L180.262 12.7759V32.2514Z" fill="#D9DF21"/>
<path d="M125.16 2.81189C126.223 3.46295 131.116 6.65924 133.844 11.8481C135.374 14.759 137.292 25.568 125.006 27.003" fill="#1ACF67"/>
<path d="M125.303 2.81189C124.24 3.46295 119.347 6.65924 116.619 11.8481C115.089 14.759 113.17 25.568 125.457 27.003" fill="#1ACF67"/>
<path d="M180.869 1.45276C181.932 2.10382 186.826 5.30011 189.553 10.4889C191.083 13.3999 193.002 24.2089 180.715 25.6438" fill="#1ACF67"/>
<path d="M181.012 1.45276C179.949 2.10382 175.056 5.30011 172.328 10.4889C170.798 13.3999 168.879 24.2089 181.166 25.6438" fill="#1ACF67"/>
<path d="M11.8722 19.7082H9.57627C9.33027 19.7082 9.13184 19.5098 9.13184 19.2638C9.13184 19.0178 9.33027 18.8193 9.57627 18.8193H11.8722C12.1182 18.8193 12.3166 19.0178 12.3166 19.2638C12.3166 19.5098 12.1182 19.7082 11.8722 19.7082Z" fill="#1ACF67"/>
<path d="M6.16223 20.8831C7.17302 20.8831 7.99243 20.0636 7.99243 19.0529C7.99243 18.0421 7.17302 17.2227 6.16223 17.2227C5.15144 17.2227 4.33203 18.0421 4.33203 19.0529C4.33203 20.0636 5.15144 20.8831 6.16223 20.8831Z" fill="#1ACF67"/>
<path d="M6.16025 16.2892C5.91426 16.2892 5.71582 16.0908 5.71582 15.8448V13.3897C5.71582 13.1438 5.91426 12.9453 6.16025 12.9453C6.40624 12.9453 6.60468 13.1438 6.60468 13.3897V15.8448C6.60468 16.0908 6.40624 16.2892 6.16025 16.2892Z" fill="#1ACF67"/>
<path d="M6.15927 25.4202C5.91328 25.4202 5.71484 25.2217 5.71484 24.9757V22.6798C5.71484 22.4338 5.91328 22.2354 6.15927 22.2354C6.40527 22.2354 6.6037 22.4338 6.6037 22.6798V24.9757C6.6037 25.2217 6.40527 25.4202 6.15927 25.4202Z" fill="#1ACF67"/>
<path d="M2.74038 19.7082H0.444429C0.198435 19.7082 0 19.5098 0 19.2638C0 19.0178 0.198435 18.8193 0.444429 18.8193H2.74038C2.98637 18.8193 3.1848 19.0178 3.1848 19.2638C3.1848 19.5098 2.98637 19.7082 2.74038 19.7082Z" fill="#1ACF67"/>
<path d="M8.51947 17.2716C8.40631 17.2716 8.29151 17.2289 8.2046 17.142C8.03076 16.9682 8.03076 16.6877 8.2046 16.5139L9.93968 14.7788C10.1135 14.605 10.3939 14.605 10.5678 14.7788C10.7416 14.9527 10.7416 15.2331 10.5678 15.4069L8.8327 17.142C8.74578 17.2289 8.63263 17.2716 8.51783 17.2716H8.51947Z" fill="#1ACF67"/>
<path d="M2.06146 23.7255C1.9483 23.7255 1.83351 23.6829 1.74659 23.596C1.57275 23.4221 1.57275 23.1417 1.74659 22.9679L3.37015 21.3443C3.54399 21.1705 3.82442 21.1705 3.99825 21.3443C4.17209 21.5181 4.17209 21.7986 3.99825 21.9724L2.37469 23.596C2.28778 23.6829 2.17462 23.7255 2.05982 23.7255H2.06146Z" fill="#1ACF67"/>
<path d="M10.144 23.7255C10.0308 23.7255 9.91605 23.6829 9.82913 23.596L8.20557 21.9724C8.03174 21.7986 8.03174 21.5165 8.20557 21.3443C8.37941 21.1705 8.65984 21.1705 8.83368 21.3443L10.4572 22.9679C10.6311 23.1417 10.6311 23.4238 10.4572 23.596C10.3703 23.6829 10.2572 23.7255 10.1424 23.7255H10.144Z" fill="#1ACF67"/>
<path d="M3.68502 17.2686C3.57186 17.2686 3.45707 17.226 3.37015 17.1391L1.74659 15.5155C1.57275 15.3417 1.57275 15.0612 1.74659 14.8874C1.92042 14.7136 2.20086 14.7136 2.37469 14.8874L3.99825 16.511C4.17209 16.6848 4.17209 16.9652 3.99825 17.1391C3.91134 17.226 3.79818 17.2686 3.68338 17.2686H3.68502Z" fill="#1ACF67"/>
<path d="M317.912 20.8831C318.923 20.8831 319.742 20.0636 319.742 19.0529C319.742 18.0421 318.923 17.2227 317.912 17.2227C316.901 17.2227 316.082 18.0421 316.082 19.0529C316.082 20.0636 316.901 20.8831 317.912 20.8831Z" fill="#1ACF67"/>
<path d="M317.914 16.2892C317.668 16.2892 317.469 16.0908 317.469 15.8448V13.3897C317.469 13.1438 317.668 12.9453 317.914 12.9453C318.16 12.9453 318.358 13.1438 318.358 13.3897V15.8448C318.358 16.0908 318.16 16.2892 317.914 16.2892Z" fill="#1ACF67"/>
<path d="M317.914 25.4202C317.668 25.4202 317.469 25.2217 317.469 24.9757V22.6798C317.469 22.4338 317.668 22.2354 317.914 22.2354C318.16 22.2354 318.358 22.4338 318.358 22.6798V24.9757C318.358 25.2217 318.16 25.4202 317.914 25.4202Z" fill="#1ACF67"/>
<path d="M323.624 19.7082H321.328C321.082 19.7082 320.884 19.5098 320.884 19.2638C320.884 19.0178 321.082 18.8193 321.328 18.8193H323.624C323.87 18.8193 324.069 19.0178 324.069 19.2638C324.069 19.5098 323.87 19.7082 323.624 19.7082Z" fill="#1ACF67"/>
<path d="M314.493 19.7082H312.197C311.951 19.7082 311.752 19.5098 311.752 19.2638C311.752 19.0178 311.951 18.8193 312.197 18.8193H314.493C314.739 18.8193 314.937 19.0178 314.937 19.2638C314.937 19.5098 314.739 19.7082 314.493 19.7082Z" fill="#1ACF67"/>
<path d="M320.272 17.2716C320.159 17.2716 320.044 17.2289 319.958 17.142C319.784 16.9682 319.784 16.6877 319.958 16.5139L321.693 14.7788C321.866 14.605 322.147 14.605 322.321 14.7788C322.495 14.9527 322.495 15.2331 322.321 15.4069L320.586 17.142C320.499 17.2289 320.386 17.2716 320.271 17.2716H320.272Z" fill="#1ACF67"/>
<path d="M313.816 23.7255C313.703 23.7255 313.588 23.6829 313.501 23.596C313.327 23.4221 313.327 23.1417 313.501 22.9679L315.125 21.3443C315.298 21.1705 315.579 21.1705 315.753 21.3443C315.926 21.5181 315.926 21.7986 315.753 21.9724L314.129 23.596C314.042 23.6829 313.929 23.7255 313.814 23.7255H313.816Z" fill="#1ACF67"/>
<path d="M321.896 23.7255C321.783 23.7255 321.668 23.6829 321.581 23.596L319.958 21.9724C319.784 21.7986 319.784 21.5181 319.958 21.3443C320.131 21.1705 320.412 21.1705 320.586 21.3443L322.209 22.9679C322.383 23.1417 322.383 23.4221 322.209 23.596C322.122 23.6829 322.009 23.7255 321.894 23.7255H321.896Z" fill="#1ACF67"/>
<path d="M315.439 17.2686C315.326 17.2686 315.211 17.226 315.125 17.1391L313.501 15.5155C313.327 15.3417 313.327 15.0596 313.501 14.8874C313.675 14.7136 313.955 14.7136 314.129 14.8874L315.753 16.511C315.926 16.6848 315.926 16.9669 315.753 17.1391C315.666 17.226 315.553 17.2686 315.438 17.2686H315.439Z" fill="#1ACF67"/>
<path d="M117.271 32.1739H190.01" stroke="#1A4D3E" stroke-width="0.905837" stroke-linecap="round" stroke-linejoin="round"/>
<path d="M140.569 1.00134H165.739" stroke="#1A4D3E" stroke-width="0.905837" stroke-linecap="round" stroke-linejoin="round"/>
<path d="M125.199 37.2346H181.256" stroke="#1A4D3E" stroke-width="0.905837" stroke-linecap="round" stroke-linejoin="round"/>
<path d="M150.357 31.9491V13.9915L165.807 1.00134L180.438 12.8976V32.1754" stroke="#1A4D3E" stroke-width="0.905837" stroke-linecap="round" stroke-linejoin="round"/>
<path d="M125.062 31.4915V13.9915L140.513 1.00134" stroke="#1A4D3E" stroke-width="0.905837" stroke-linecap="round" stroke-linejoin="round"/>
<path d="M134.354 13.8495H150.216" stroke="#1A4D3E" stroke-width="0.905837" stroke-linecap="round" stroke-linejoin="round"/>
<path d="M165.944 20.1418V32.1742" stroke="#1A4D3E" stroke-width="0.905837" stroke-linecap="round" stroke-linejoin="round"/>
<path d="M160.612 20.1418V24.1417" stroke="#1A4D3E" stroke-width="0.905837" stroke-linecap="round" stroke-linejoin="round"/>
<path d="M143.996 20.1418V24.1417" stroke="#1A4D3E" stroke-width="0.905837" stroke-linecap="round" stroke-linejoin="round"/>
<path d="M170.496 20.1418V24.1417" stroke="#1A4D3E" stroke-width="0.905837" stroke-linecap="round" stroke-linejoin="round"/>
<path d="M139.078 20.1418V24.1417" stroke="#1A4D3E" stroke-width="0.905837" stroke-linecap="round" stroke-linejoin="round"/>
<path d="M180.7 1.64667C179.508 2.38629 174.758 5.55634 172.087 10.6402C170.557 13.5511 168.691 24.3815 180.977 25.8164" stroke="#1A4D3E" stroke-width="0.905837" stroke-linecap="round" stroke-linejoin="round"/>
<path d="M180.662 1.64667C181.855 2.38629 186.604 5.55634 189.275 10.6402C190.806 13.5511 192.672 24.3815 180.385 25.8164" stroke="#1A4D3E" stroke-width="0.905837" stroke-linecap="round" stroke-linejoin="round"/>
<path d="M180.437 13.2736L186.897 7.63379" stroke="#1A4D3E" stroke-width="0.905837" stroke-linecap="round" stroke-linejoin="round"/>
<path d="M180.437 20.8715L190.064 12.9472" stroke="#1A4D3E" stroke-width="0.905837" stroke-linecap="round" stroke-linejoin="round"/>
<path d="M180.605 20.8778L171.372 13.2766" stroke="#1A4D3E" stroke-width="0.905837" stroke-linecap="round" stroke-linejoin="round"/>
<path d="M125.062 13.9924V32.0533" stroke="#1A4D3E" stroke-width="0.905837" stroke-linecap="round" stroke-linejoin="round"/>
<path d="M125.309 2.46198C124.085 3.22456 119.372 6.38804 116.715 11.444C115.185 14.355 112.904 25.164 125.191 26.5989" stroke="#1A4D3E" stroke-width="0.905837" stroke-linecap="round" stroke-linejoin="round"/>
<path d="M125.217 2.40839C126.279 3.05945 131.173 6.25574 133.9 11.4446C135.43 14.3555 137.349 25.1645 125.062 26.5995" stroke="#1A4D3E" stroke-width="0.905837" stroke-linecap="round" stroke-linejoin="round"/>
<path d="M125.062 14.0776L131.524 8.43781" stroke="#1A4D3E" stroke-width="0.905837" stroke-linecap="round" stroke-linejoin="round"/>
<path d="M125.062 21.6795L149.468 1.14062" stroke="#1A4D3E" stroke-width="0.905837" stroke-linecap="round" stroke-linejoin="round"/>
<path d="M142.701 13.788L157.195 1.14062" stroke="#1A4D3E" stroke-width="0.905837" stroke-linecap="round" stroke-linejoin="round"/>
<path d="M124.914 19.7382L116.228 12.588" stroke="#1A4D3E" stroke-width="0.905837" stroke-linecap="round" stroke-linejoin="round"/>
<path d="M124.916 13.8546L118.917 8.43781" stroke="#1A4D3E" stroke-width="0.905837" stroke-linecap="round" stroke-linejoin="round"/>
<path d="M71.2715 18.4051L71.2556 14.742C71.2556 14.6704 71.2715 14.6146 71.3193 14.5668C71.3591 14.5191 71.4228 14.4872 71.5104 14.4952H71.9802C72.0519 14.4952 72.1076 14.5191 72.1634 14.5668C72.2191 14.6146 72.243 14.6704 72.243 14.75L72.2749 23.0556C72.2749 23.2229 72.1873 23.3105 72.0121 23.3105H71.5422C71.375 23.3105 71.2874 23.2229 71.2874 23.0556L71.2715 19.3926L66.2228 19.4165L66.2387 23.0795C66.2387 23.2468 66.1511 23.3344 65.968 23.3344H65.5141C65.3468 23.3344 65.2592 23.2468 65.2592 23.0795L65.2354 14.7659C65.2354 14.6943 65.2513 14.6385 65.2991 14.5907C65.3389 14.543 65.4026 14.5111 65.4902 14.5191H65.96C66.0317 14.5191 66.0874 14.543 66.1432 14.5907C66.1989 14.6385 66.2228 14.7022 66.2228 14.7659L66.2387 18.429L71.2715 18.4051Z" fill="#1A4D3E"/>
<path d="M75.0702 17.3067C74.8472 17.7208 74.7198 18.1588 74.68 18.6047C74.6402 19.0587 74.68 19.4966 74.8074 19.9107C74.9348 20.3328 75.1339 20.715 75.4126 21.0654C75.6913 21.4158 76.0417 21.7024 76.4479 21.9175C76.8619 22.1325 77.284 22.2678 77.7299 22.2997C78.1759 22.3395 78.6059 22.2838 79.02 22.1563C79.4341 22.0289 79.8163 21.8139 80.1667 21.5273C80.5171 21.2406 80.8037 20.8902 81.0188 20.4761C81.2417 20.062 81.3691 19.624 81.401 19.1781C81.4408 18.7322 81.393 18.2942 81.2656 17.8801C81.1382 17.466 80.9391 17.0758 80.6604 16.7334C80.3817 16.383 80.0393 16.0963 79.6252 15.8813C79.2111 15.6663 78.789 15.5309 78.3351 15.4991C77.8892 15.4593 77.4592 15.5071 77.0451 15.6345C76.631 15.7619 76.2488 15.9689 75.9064 16.2556C75.5719 16.5423 75.2852 16.8927 75.0702 17.3067ZM80.103 14.9974C80.6365 15.2841 81.0825 15.6504 81.4408 16.1043C81.7991 16.5582 82.0619 17.0519 82.2292 17.5934C82.3964 18.1349 82.4521 18.6923 82.4044 19.2816C82.3566 19.8709 82.1893 20.4363 81.8947 20.9778C81.608 21.5193 81.2417 21.9652 80.7958 22.3315C80.3419 22.6978 79.8561 22.9606 79.3146 23.1199C78.7731 23.2792 78.2237 23.3429 77.6423 23.3031C77.069 23.2553 76.5116 23.088 75.9701 22.8014C75.4365 22.5147 74.9906 22.1484 74.6322 21.6945C74.2739 21.2406 74.0111 20.7469 73.8518 20.2054C73.6926 19.6718 73.6289 19.1064 73.6767 18.5251C73.7244 17.9438 73.8917 17.3784 74.1783 16.8449C74.465 16.3034 74.8313 15.8495 75.2852 15.4832C75.7391 15.1169 76.2329 14.8461 76.7744 14.6789C77.3079 14.5116 77.8653 14.4479 78.4466 14.4957C79.02 14.5435 79.5694 14.7107 80.103 14.9974Z" fill="#1A4D3E"/>
<path d="M88.8544 22.8642H88.4005C88.3049 22.8642 88.2253 22.7925 88.1695 22.6492L85.4461 16.2945L84.825 23.0633C84.825 23.2384 84.7374 23.326 84.5542 23.326H84.0605C83.8933 23.326 83.8057 23.2384 83.8057 23.0712C83.941 21.6936 84.0764 20.2522 84.2118 18.8985C84.3472 17.5368 84.4825 16.1671 84.6179 14.7895C84.6179 14.7098 84.6418 14.6461 84.6975 14.5983C84.7533 14.5506 84.817 14.5267 84.8966 14.5267H85.6213C85.7487 14.5267 85.8283 14.5983 85.8761 14.7496L88.6155 21.3113C89.0614 20.2124 89.5153 19.1135 89.9612 18.0225C90.4072 16.9316 90.8611 15.8326 91.307 14.7337C91.3468 14.5824 91.4265 14.5107 91.5539 14.5107H92.3184C92.398 14.5107 92.4617 14.5346 92.5095 14.5904C92.5573 14.6382 92.5811 14.7019 92.5811 14.7735L93.4651 23.0871C93.4651 23.2623 93.3775 23.3499 93.1943 23.3499H92.7006C92.5254 23.3499 92.4458 23.2623 92.4458 23.0951L91.7609 16.3025L89.0932 22.681C89.0534 22.7845 88.9658 22.8562 88.8544 22.8642Z" fill="#1A4D3E"/>
<path d="M95.122 14.4959L100.752 14.5039C100.919 14.5039 101.007 14.5915 101.007 14.7746V15.2604C101.007 15.332 100.983 15.3958 100.935 15.4515C100.887 15.5072 100.824 15.5311 100.736 15.5311L95.8706 15.5232V18.151L99.7407 18.159C99.8124 18.159 99.8681 18.1829 99.9238 18.2227C99.9716 18.2625 100.003 18.3342 99.9955 18.4297V18.9155C99.9955 18.9872 99.9716 19.0509 99.9318 19.1066C99.892 19.1624 99.8283 19.1863 99.7407 19.1863L95.8706 19.1783V22.268L100.784 22.276C100.967 22.276 101.055 22.3715 101.055 22.5627V23.0484C101.055 23.2236 100.967 23.3112 100.8 23.3112L95.122 23.3032C94.9548 23.3032 94.8672 23.2156 94.8672 23.0564L94.8752 14.7587C94.8672 14.5835 94.9548 14.4959 95.122 14.4959Z" fill="#1A4D3E"/>
<path d="M107.6 16.3991C107.512 16.3115 107.393 16.216 107.257 16.1124C107.122 16.0089 106.971 15.8974 106.795 15.8019C106.62 15.7063 106.429 15.6267 106.222 15.555C106.015 15.4913 105.792 15.4595 105.545 15.4595C105.227 15.4595 104.956 15.4993 104.725 15.5789C104.494 15.6585 104.303 15.7621 104.16 15.8974C104.016 16.0328 103.905 16.1762 103.833 16.3434C103.761 16.5106 103.722 16.6778 103.729 16.8451C103.729 17.0362 103.785 17.2114 103.905 17.3547C104.024 17.506 104.175 17.6255 104.367 17.729C104.558 17.8325 104.773 17.9281 105.02 17.9997C105.258 18.0794 105.505 18.151 105.744 18.2227C106.087 18.3183 106.429 18.4138 106.779 18.5333C107.13 18.6448 107.448 18.7881 107.743 18.9712C108.038 19.1464 108.269 19.3694 108.46 19.6322C108.643 19.895 108.738 20.2294 108.738 20.6435C108.738 21.0576 108.651 21.4319 108.484 21.7663C108.316 22.1008 108.093 22.3795 107.807 22.6104C107.52 22.8414 107.186 23.0166 106.803 23.144C106.421 23.2714 105.999 23.3271 105.553 23.3271C104.964 23.3271 104.406 23.1997 103.873 22.9608C103.339 22.714 102.893 22.3556 102.527 21.8699C102.463 21.7823 102.439 21.7186 102.439 21.6628C102.439 21.5911 102.471 21.5274 102.543 21.4797L102.909 21.1691C102.965 21.1293 103.021 21.1134 103.077 21.1134C103.132 21.1134 103.18 21.1372 103.228 21.193C103.276 21.2408 103.307 21.2726 103.323 21.2885C103.491 21.4637 103.674 21.623 103.881 21.7584C104.088 21.8938 104.295 22.0052 104.502 22.0928C104.709 22.1804 104.908 22.2521 105.099 22.2999C105.29 22.3477 105.45 22.3715 105.585 22.3715C105.816 22.3715 106.063 22.3397 106.318 22.276C106.572 22.2123 106.811 22.1088 107.018 21.9734C107.233 21.838 107.401 21.6628 107.544 21.4558C107.679 21.2487 107.751 21.0019 107.751 20.7232C107.751 20.4843 107.687 20.2852 107.56 20.1259C107.432 19.9667 107.257 19.8313 107.05 19.7118C106.835 19.5924 106.596 19.4968 106.318 19.4172C106.039 19.3376 105.76 19.2579 105.465 19.1783C104.526 18.9314 103.833 18.6368 103.371 18.2864C102.909 17.944 102.678 17.4742 102.678 16.8928C102.678 16.5345 102.75 16.216 102.885 15.9213C103.021 15.6267 103.22 15.3798 103.475 15.1648C103.729 14.9498 104.04 14.7905 104.398 14.6711C104.757 14.5596 105.155 14.4959 105.593 14.4959C106.047 14.4959 106.509 14.5994 106.978 14.8065C107.448 15.0135 107.846 15.2763 108.165 15.6028C108.213 15.6585 108.261 15.7143 108.308 15.77C108.356 15.8258 108.38 15.8815 108.38 15.9293C108.38 15.993 108.348 16.0567 108.292 16.1124L107.95 16.4469C107.894 16.5026 107.846 16.5265 107.799 16.5265C107.743 16.5106 107.671 16.4708 107.6 16.3991Z" fill="#1A4D3E"/>
<path d="M19.8686 16.0251L18.1166 20.3889L21.5886 20.3969L19.8686 16.0251ZM17.6866 21.4002L17.0177 23.0964C16.9461 23.2557 16.8346 23.3353 16.6833 23.3353H16.1736C16.0064 23.3273 15.9268 23.2636 15.9268 23.1362C15.9268 23.1044 15.9347 23.0725 15.9427 23.0327C15.9427 23.0168 15.9427 23.0009 15.9586 22.9849C16.532 21.5993 17.0098 20.4447 17.4079 19.497C17.7981 18.5574 18.1246 17.777 18.3874 17.1638C18.6343 16.5427 18.8333 16.0728 18.9687 15.7463C19.112 15.4119 19.2156 15.173 19.2793 15.0137C19.343 14.8624 19.3828 14.7589 19.4067 14.7032C19.4226 14.6634 19.4465 14.6156 19.4863 14.5678C19.5182 14.52 19.5978 14.4882 19.7093 14.4882H20.0517C20.1552 14.4882 20.2269 14.512 20.2667 14.5678C20.3065 14.6235 20.3304 14.6634 20.3464 14.7032L23.7387 22.9849C23.7467 23.0009 23.7546 23.0168 23.7626 23.0327C23.7705 23.0805 23.7705 23.1123 23.7785 23.1283C23.7785 23.2557 23.6909 23.3194 23.5157 23.3194H23.0061C22.8468 23.3194 22.7433 23.2477 22.6875 23.0884L22.0027 21.4082L17.6866 21.4002Z" fill="#1A4D3E"/>
<path d="M56.9535 16.025L55.2016 20.3888L58.6736 20.3968L56.9535 16.025ZM54.7716 21.4002L54.1027 23.0963C54.031 23.2556 53.9195 23.3352 53.7682 23.3352H53.2586C53.0914 23.3352 53.0117 23.2715 53.0117 23.1441C53.0117 23.1122 53.0197 23.0804 53.0276 23.0406C53.0276 23.0247 53.0276 23.0087 53.0436 22.9928C53.6169 21.6072 54.0947 20.4525 54.4929 19.5049C54.8831 18.5652 55.2096 17.7848 55.4724 17.1717C55.7272 16.5585 55.9263 16.0807 56.0696 15.7542C56.205 15.4277 56.3085 15.1809 56.3722 15.0296C56.4359 14.8783 56.4837 14.7668 56.4996 14.711C56.5155 14.6712 56.5394 14.6234 56.5792 14.5757C56.6111 14.5279 56.6907 14.496 56.8022 14.496H57.1446C57.2482 14.496 57.3198 14.5199 57.3596 14.5757C57.3995 14.6314 57.4233 14.6712 57.4393 14.711L60.8316 22.9928C60.8396 23.0087 60.8475 23.0247 60.8555 23.0406C60.8635 23.0884 60.8635 23.1202 60.8714 23.1361C60.8714 23.2635 60.7838 23.3273 60.6086 23.3273H60.099C59.9397 23.3273 59.8362 23.2556 59.7805 23.0963L59.0956 21.4161L54.7716 21.4002Z" fill="#1A4D3E"/>
<path d="M37.9528 17.2346C37.9528 17.0037 37.913 16.7807 37.8254 16.5737C37.7378 16.3667 37.6184 16.1755 37.475 16.0163C37.3237 15.857 37.1565 15.7296 36.9494 15.634C36.7504 15.5385 36.5354 15.4907 36.3044 15.4907H34.2021V18.9706H36.3044C36.5274 18.9706 36.7424 18.9229 36.9415 18.8273C37.1406 18.7317 37.3158 18.6043 37.4671 18.4451C37.6184 18.2858 37.7378 18.1026 37.8254 17.8956C37.913 17.6886 37.9528 17.4656 37.9528 17.2346ZM33.2227 23.0558L33.2306 14.766C33.2306 14.5749 33.3182 14.4794 33.4934 14.4794H36.3124C36.6867 14.4794 37.0291 14.551 37.3476 14.7023C37.6661 14.8536 37.9449 15.0448 38.1838 15.2996C38.4147 15.5464 38.5978 15.8411 38.7332 16.1835C38.8686 16.518 38.9323 16.8763 38.9323 17.2506C38.9323 17.6169 38.8686 17.9673 38.7332 18.3017C38.5978 18.6362 38.4226 18.9308 38.1917 19.1777C37.9608 19.4325 37.6821 19.6236 37.3715 19.7749C37.053 19.9183 36.7106 19.9979 36.3522 19.9979H34.2181V23.0717C34.2181 23.2469 34.1305 23.3345 33.9712 23.3345H33.4934C33.3103 23.3186 33.2306 23.231 33.2227 23.0558Z" fill="#1A4D3E"/>
<path d="M41.3217 14.743L41.3456 23.0486C41.3456 23.2238 41.258 23.3114 41.0908 23.3114H40.605C40.4378 23.3114 40.3502 23.2238 40.3502 23.0486L40.3184 14.7509C40.3184 14.5758 40.406 14.4882 40.5732 14.4882H41.0589C41.2341 14.4882 41.3217 14.5758 41.3217 14.743Z" fill="#1A4D3E"/>
<path d="M51.6024 14.735L51.6263 23.0646C51.6263 23.2318 51.5466 23.3194 51.3794 23.3194H50.9016C50.7344 23.3194 50.6547 23.2397 50.6547 23.0725L50.6309 14.743C50.6309 14.5758 50.7105 14.4882 50.8777 14.4882H51.3555C51.5227 14.4882 51.6024 14.5678 51.6024 14.735Z" fill="#1A4D3E"/>
<path d="M43.0016 14.4882L48.966 14.5041C49.0377 14.5041 49.0934 14.528 49.1492 14.5678C49.2049 14.6076 49.2368 14.6713 49.2447 14.7589V15.2367C49.2447 15.3163 49.2208 15.38 49.1731 15.4358C49.1253 15.4915 49.0536 15.5154 48.966 15.5154L46.4974 15.5075L46.4815 23.0247C46.4815 23.0964 46.4576 23.1522 46.4098 23.2079C46.362 23.2557 46.2983 23.2875 46.2107 23.2796H45.733C45.6533 23.2796 45.5896 23.2557 45.5418 23.2079C45.4941 23.1601 45.4622 23.0964 45.4702 23.0247L45.4861 15.5075H43.0016C42.8264 15.5075 42.7388 15.4119 42.7388 15.2287V14.7509C42.7308 14.5758 42.8184 14.4882 43.0016 14.4882Z" fill="#1A4D3E"/>
<path d="M31.5665 23.3027L25.4507 23.3186C25.3711 23.3186 25.3074 23.2947 25.2517 23.239C25.1959 23.1912 25.172 23.1195 25.1641 23.0399V22.5063C25.1641 22.4745 25.1641 22.4426 25.18 22.4028C25.188 22.371 25.2118 22.3311 25.2517 22.2913L30.4198 15.5226L25.5622 15.5305C25.3711 15.5305 25.2755 15.435 25.2755 15.2518V14.7501C25.2755 14.575 25.3711 14.4874 25.5622 14.4874L31.5267 14.4714C31.6063 14.4714 31.67 14.4953 31.7258 14.5431C31.7815 14.5909 31.8054 14.6546 31.8054 14.7422V15.2837C31.8054 15.3633 31.7895 15.427 31.7497 15.4748L26.6054 22.2515L31.5665 22.2435C31.6461 22.2435 31.7098 22.2674 31.7576 22.3152C31.8054 22.363 31.8372 22.4347 31.8372 22.5302V23.008C31.8372 23.0797 31.8134 23.1434 31.7576 23.1991C31.7098 23.2788 31.6461 23.3027 31.5665 23.3027Z" fill="#1A4D3E"/>
<path d="M42.6512 12.1145L41.401 13.5957C41.2895 13.731 41.1621 13.739 41.0346 13.6275L40.6683 13.309C40.5409 13.1975 40.533 13.0781 40.6444 12.9427L41.8947 11.4615C42.0062 11.3261 42.1336 11.3182 42.261 11.4297L42.6273 11.7482C42.7547 11.8676 42.7627 11.9871 42.6512 12.1145Z" fill="#1A4D3E"/>
<path d="M241.891 22.4683L243.922 22.4763C244.408 22.4763 244.862 22.3807 245.268 22.1976C245.674 22.0065 246.024 21.7516 246.319 21.4331C246.614 21.1146 246.845 20.7483 247.012 20.3262C247.179 19.9121 247.259 19.4742 247.267 19.0203C247.267 18.5106 247.179 18.0487 246.996 17.6346C246.813 17.2206 246.574 16.8702 246.263 16.5755C245.953 16.2809 245.594 16.0579 245.18 15.8987C244.766 15.7394 244.336 15.6598 243.882 15.6598L241.915 15.6518L241.891 22.4683ZM240.88 23.2248L240.904 14.9351C240.904 14.744 240.992 14.6484 241.175 14.6484L243.882 14.6564C244.503 14.6564 245.085 14.7758 245.618 15.0068C246.152 15.2377 246.614 15.5562 247.012 15.9544C247.402 16.3526 247.713 16.8224 247.936 17.3639C248.159 17.9054 248.27 18.4867 248.27 19.0999C248.27 19.7051 248.151 20.2705 247.92 20.804C247.689 21.3376 247.378 21.8074 246.972 22.2055C246.574 22.6037 246.104 22.9222 245.57 23.1452C245.037 23.3761 244.464 23.4876 243.858 23.4876L241.151 23.4797C241.071 23.4797 241.008 23.4637 240.952 23.4239C240.904 23.3841 240.872 23.3204 240.88 23.2248Z" fill="#1A4D3E"/>
<path d="M249.942 14.6797L255.612 14.6956C255.787 14.6956 255.875 14.7912 255.867 14.9664V15.4521C255.867 15.5238 255.843 15.5875 255.795 15.6432C255.747 15.699 255.683 15.7229 255.596 15.7229L250.698 15.7069L250.69 18.3268L254.592 18.3428C254.664 18.3428 254.728 18.3667 254.776 18.4065C254.823 18.4543 254.855 18.518 254.847 18.6135V19.0993C254.847 19.1709 254.823 19.2347 254.784 19.2904C254.744 19.3461 254.68 19.37 254.592 19.37L250.69 19.3541L250.683 22.4359L255.628 22.4518C255.811 22.4518 255.898 22.5474 255.898 22.7385V23.2242C255.898 23.3994 255.811 23.487 255.636 23.487L249.918 23.4711C249.743 23.4711 249.655 23.3835 249.655 23.2242L249.679 14.9504C249.687 14.7752 249.767 14.6877 249.942 14.6797Z" fill="#1A4D3E"/>
<path d="M207.999 16.075L206.248 20.4388L209.719 20.4468L207.999 16.075ZM205.817 21.4502L205.149 23.1463C205.077 23.3056 204.965 23.3852 204.814 23.3852H204.304C204.137 23.3852 204.058 23.3215 204.058 23.1941C204.058 23.1623 204.066 23.1304 204.074 23.0906C204.074 23.0747 204.074 23.0587 204.089 23.0428C204.663 21.6572 205.141 20.5025 205.539 19.5549C205.929 18.6153 206.255 17.8349 206.518 17.2217C206.773 16.6085 206.972 16.1307 207.115 15.8042C207.251 15.4777 207.354 15.2309 207.418 15.0796C207.482 14.9283 207.53 14.8168 207.546 14.7611C207.561 14.7212 207.585 14.6735 207.625 14.6257C207.649 14.562 207.729 14.5381 207.832 14.5381H208.175C208.278 14.5381 208.35 14.562 208.39 14.6177C208.429 14.6735 208.453 14.7133 208.469 14.7531L211.862 23.0349C211.87 23.0508 211.878 23.0667 211.885 23.0826C211.893 23.1304 211.893 23.1623 211.901 23.1782C211.901 23.3056 211.814 23.3693 211.639 23.3693H211.129C210.97 23.3693 210.866 23.2976 210.81 23.1384L210.126 21.4581L205.817 21.4502Z" fill="#1A4D3E"/>
<path d="M225.025 16.075L223.273 20.4388L226.745 20.4468L225.025 16.075ZM222.843 21.4502L222.174 23.1463C222.102 23.3056 221.991 23.3852 221.84 23.3852H221.33C221.163 23.3852 221.083 23.3215 221.083 23.1941C221.083 23.1623 221.091 23.1304 221.099 23.0906C221.099 23.0747 221.099 23.0587 221.115 23.0428C221.688 21.6572 222.166 20.5025 222.564 19.5549C222.962 18.6073 223.281 17.8349 223.544 17.2217C223.798 16.6085 223.998 16.1307 224.141 15.8042C224.276 15.4777 224.38 15.2309 224.443 15.0796C224.507 14.9283 224.555 14.8168 224.571 14.7611C224.587 14.7212 224.611 14.6735 224.651 14.6257C224.674 14.562 224.754 14.5381 224.858 14.5381H225.2C225.304 14.5381 225.375 14.562 225.415 14.6177C225.455 14.6735 225.479 14.7133 225.495 14.7531L228.887 23.0349C228.895 23.0508 228.903 23.0667 228.911 23.0826C228.919 23.1304 228.919 23.1623 228.927 23.1782C228.927 23.3056 228.839 23.3693 228.664 23.3693H228.154C227.995 23.3693 227.892 23.2976 227.836 23.1384L227.151 21.4581L222.843 21.4502Z" fill="#1A4D3E"/>
<path d="M235.703 16.6314C235.616 16.5438 235.504 16.4403 235.369 16.3288C235.234 16.2173 235.082 16.1059 234.907 16.0103C234.732 15.9068 234.541 15.8192 234.334 15.7475C234.127 15.6758 233.896 15.636 233.649 15.6281C233.33 15.6201 233.052 15.6519 232.813 15.7236C232.574 15.7953 232.383 15.8988 232.231 16.0262C232.08 16.1536 231.961 16.297 231.881 16.4642C231.801 16.6235 231.762 16.7907 231.754 16.9659C231.746 17.157 231.801 17.3322 231.913 17.4835C232.024 17.6348 232.184 17.7622 232.375 17.8737C232.566 17.9852 232.781 18.0807 233.028 18.1683C233.267 18.2559 233.514 18.3356 233.752 18.4152C234.095 18.5187 234.437 18.6302 234.796 18.7576C235.146 18.8771 235.472 19.0363 235.759 19.2195C236.046 19.4026 236.285 19.6336 236.46 19.9043C236.643 20.1751 236.723 20.5095 236.707 20.9156C236.691 21.3297 236.595 21.704 236.42 22.0305C236.245 22.357 236.006 22.6277 235.711 22.8507C235.417 23.0737 235.074 23.2409 234.676 23.3524C234.278 23.4639 233.856 23.5117 233.41 23.4957C232.813 23.4798 232.247 23.3365 231.714 23.0816C231.18 22.8189 230.742 22.4446 230.384 21.9509C230.328 21.8633 230.296 21.7916 230.296 21.7438C230.296 21.6722 230.336 21.6164 230.408 21.5607L230.782 21.2581C230.838 21.2182 230.894 21.2023 230.957 21.2023C231.013 21.2023 231.061 21.2262 231.109 21.282C231.156 21.3377 231.188 21.3695 231.204 21.3855C231.363 21.5686 231.555 21.7279 231.754 21.8712C231.961 22.0146 232.168 22.134 232.375 22.2216C232.582 22.3172 232.781 22.3888 232.972 22.4446C233.163 22.5003 233.322 22.5242 233.466 22.5322C233.705 22.5401 233.952 22.5163 234.214 22.4605C234.477 22.4048 234.716 22.3092 234.939 22.1818C235.154 22.0544 235.337 21.8872 235.48 21.6881C235.624 21.489 235.703 21.2421 235.711 20.9634C235.719 20.7245 235.664 20.5254 235.536 20.3662C235.409 20.2069 235.242 20.0636 235.035 19.9441C234.827 19.8247 234.581 19.7132 234.302 19.6256C234.023 19.538 233.737 19.4504 233.442 19.3628C232.502 19.0841 231.801 18.7656 231.348 18.4152C230.894 18.0568 230.671 17.587 230.695 16.9977C230.703 16.6474 230.782 16.3209 230.933 16.0342C231.085 15.7475 231.284 15.5006 231.555 15.2936C231.825 15.0945 232.136 14.9353 232.502 14.8317C232.869 14.7282 233.275 14.6804 233.721 14.6964C234.182 14.7123 234.644 14.8238 235.114 15.0467C235.584 15.2618 235.974 15.5405 236.293 15.8749C236.34 15.9307 236.38 15.9864 236.428 16.0501C236.476 16.1138 236.5 16.1616 236.5 16.2094C236.5 16.2731 236.468 16.3288 236.404 16.3925L236.046 16.719C235.99 16.7748 235.942 16.7987 235.895 16.7987C235.847 16.7588 235.775 16.719 235.703 16.6314Z" fill="#1A4D3E"/>
<path d="M218.686 16.6314C218.598 16.5438 218.487 16.4403 218.351 16.3288C218.216 16.2173 218.065 16.1059 217.89 16.0103C217.714 15.9068 217.523 15.8192 217.316 15.7475C217.109 15.6758 216.878 15.636 216.631 15.6281C216.313 15.6201 216.034 15.6519 215.795 15.7236C215.556 15.7953 215.365 15.8988 215.214 16.0262C215.063 16.1536 214.943 16.297 214.863 16.4642C214.784 16.6235 214.744 16.7907 214.736 16.9659C214.728 17.157 214.784 17.3322 214.895 17.4835C215.007 17.6348 215.166 17.7622 215.357 17.8737C215.548 17.9852 215.763 18.0807 216.01 18.1683C216.249 18.2559 216.496 18.3356 216.735 18.4152C217.077 18.5187 217.42 18.6302 217.778 18.7576C218.128 18.8771 218.455 19.0363 218.742 19.2195C219.028 19.4026 219.267 19.6336 219.442 19.9043C219.626 20.1751 219.705 20.5095 219.689 20.9156C219.673 21.3297 219.578 21.704 219.403 22.0305C219.227 22.357 218.988 22.6277 218.694 22.8507C218.399 23.0737 218.057 23.2409 217.659 23.3524C217.26 23.4639 216.838 23.5117 216.392 23.4957C215.795 23.4798 215.23 23.3365 214.696 23.0816C214.163 22.8189 213.725 22.4446 213.366 21.9509C213.311 21.8633 213.279 21.7916 213.279 21.7438C213.279 21.6722 213.319 21.6164 213.39 21.5607L213.765 21.2581C213.82 21.2182 213.876 21.2023 213.94 21.2023C213.995 21.2023 214.043 21.2262 214.091 21.282C214.139 21.3377 214.171 21.3695 214.187 21.3855C214.346 21.5686 214.537 21.7279 214.736 21.8712C214.943 22.0146 215.15 22.134 215.357 22.2216C215.564 22.3172 215.763 22.3888 215.954 22.4446C216.146 22.5003 216.305 22.5242 216.448 22.5322C216.687 22.5401 216.934 22.5163 217.197 22.4605C217.46 22.4048 217.698 22.3092 217.921 22.1818C218.136 22.0544 218.32 21.8872 218.463 21.6881C218.606 21.489 218.686 21.2421 218.694 20.9634C218.702 20.7245 218.646 20.5254 218.519 20.3662C218.391 20.2069 218.224 20.0636 218.017 19.9441C217.81 19.8247 217.563 19.7132 217.284 19.6256C217.006 19.538 216.719 19.4504 216.424 19.3628C215.485 19.0841 214.784 18.7656 214.33 18.4152C213.876 18.0568 213.653 17.587 213.677 16.9977C213.685 16.6474 213.765 16.3209 213.916 16.0342C214.067 15.7475 214.266 15.5006 214.537 15.2936C214.808 15.0945 215.118 14.9353 215.485 14.8317C215.851 14.7282 216.257 14.6804 216.703 14.6964C217.165 14.7123 217.627 14.8238 218.097 15.0467C218.566 15.2618 218.957 15.5405 219.275 15.8749C219.323 15.9307 219.363 15.9864 219.41 16.0501C219.458 16.1138 219.482 16.1616 219.482 16.2094C219.482 16.2731 219.45 16.3288 219.387 16.3925L219.028 16.719C218.973 16.7748 218.925 16.7987 218.877 16.7987C218.821 16.7588 218.758 16.719 218.686 16.6314Z" fill="#1A4D3E"/>
<path d="M202.521 15.5643C202.616 15.628 202.672 15.6917 202.672 15.7634C202.672 15.8032 202.664 15.843 202.64 15.8749C202.624 15.9067 202.6 15.9386 202.592 15.9625L202.346 16.3367C202.274 16.4323 202.21 16.4721 202.146 16.4721C202.123 16.4642 202.099 16.4562 202.059 16.4482C202.027 16.4323 201.987 16.4084 201.939 16.3845C201.653 16.1695 201.334 16.0023 200.992 15.8749C200.649 15.7554 200.307 15.6917 199.949 15.6838C199.447 15.6758 198.977 15.7634 198.563 15.9465C198.141 16.1217 197.783 16.3686 197.472 16.6792C197.169 16.9897 196.923 17.3481 196.755 17.7542C196.58 18.1603 196.493 18.5983 196.485 19.0522C196.477 19.53 196.564 19.9759 196.747 20.398C196.931 20.82 197.177 21.1784 197.488 21.4889C197.799 21.7916 198.157 22.0384 198.563 22.2136C198.969 22.3888 199.399 22.4844 199.837 22.4923C200.124 22.4923 200.418 22.4605 200.697 22.3888C200.992 22.3171 201.302 22.1738 201.653 21.9747C201.732 21.9349 201.804 21.8871 201.884 21.8234C201.963 21.7597 202.027 21.7278 202.083 21.7278C202.154 21.7278 202.218 21.7756 202.274 21.8712L202.529 22.3171C202.553 22.3729 202.561 22.4206 202.561 22.4764C202.561 22.564 202.513 22.6277 202.433 22.6755C202.059 22.9383 201.661 23.1453 201.223 23.2886C200.785 23.432 200.315 23.5036 199.805 23.4957C199.2 23.4877 198.635 23.3603 198.101 23.1294C197.568 22.8905 197.114 22.5719 196.723 22.1738C196.341 21.7517 196.031 21.2819 195.816 20.7484C195.593 20.2069 195.481 19.6335 195.489 19.0283C195.497 18.4231 195.617 17.8498 195.855 17.3162C196.094 16.7827 196.413 16.3208 196.811 15.9227C197.217 15.5245 197.679 15.2139 198.221 14.991C198.754 14.768 199.327 14.6565 199.933 14.6645C200.418 14.6724 200.872 14.7521 201.31 14.9034C201.748 15.0626 202.154 15.2856 202.521 15.5643Z" fill="#1A4D3E"/>
<path d="M272.517 16.075L270.765 20.4388L274.237 20.4468L272.517 16.075ZM270.335 21.4502L269.666 23.1463C269.594 23.3056 269.483 23.3852 269.332 23.3852H268.822C268.655 23.3852 268.575 23.3215 268.575 23.1941C268.575 23.1623 268.583 23.1304 268.591 23.0906C268.591 23.0747 268.591 23.0587 268.607 23.0428C269.18 21.6572 269.658 20.5025 270.056 19.5549C270.447 18.6153 270.773 17.8349 271.036 17.2217C271.291 16.6085 271.49 16.1307 271.633 15.8042C271.768 15.4777 271.872 15.2309 271.936 15.0796C271.999 14.9283 272.047 14.8168 272.063 14.7611C272.079 14.7212 272.103 14.6735 272.143 14.6257C272.167 14.562 272.238 14.5381 272.35 14.5381H272.692C272.796 14.5381 272.867 14.562 272.907 14.6177C272.947 14.6735 272.971 14.7133 272.987 14.7531L276.379 23.0349C276.387 23.0508 276.395 23.0667 276.403 23.0826C276.411 23.1304 276.411 23.1623 276.419 23.1782C276.419 23.3056 276.331 23.3693 276.156 23.3693H275.647C275.487 23.3693 275.384 23.2976 275.328 23.1384L274.643 21.4581L270.335 21.4502Z" fill="#1A4D3E"/>
<path d="M293.588 17.4291C293.588 17.1982 293.548 16.9752 293.461 16.7682C293.373 16.5611 293.254 16.37 293.11 16.2107C292.959 16.0515 292.792 15.9241 292.585 15.8285C292.386 15.7329 292.171 15.6852 291.94 15.6852H289.837V19.1651H291.94C292.163 19.1651 292.378 19.1173 292.577 19.0218C292.776 18.9262 292.951 18.7988 293.102 18.6395C293.254 18.4803 293.373 18.2971 293.461 18.0901C293.54 17.883 293.588 17.66 293.588 17.4291ZM288.858 23.2502L288.866 14.9605C288.866 14.7694 288.953 14.6738 289.129 14.6738H291.948C292.322 14.6738 292.664 14.7455 292.983 14.8968C293.301 15.0481 293.58 15.2392 293.819 15.494C294.05 15.7409 294.233 16.0355 294.368 16.378C294.504 16.7204 294.568 17.0708 294.568 17.445C294.568 17.8113 294.504 18.1617 294.368 18.4962C294.233 18.8306 294.058 19.1253 293.827 19.3721C293.596 19.627 293.317 19.8181 293.007 19.9694C292.688 20.1127 292.346 20.1923 291.987 20.1923H289.853V23.2662C289.853 23.4413 289.766 23.5289 289.606 23.5289H289.129C288.946 23.513 288.858 23.4254 288.858 23.2502Z" fill="#1A4D3E"/>
<path d="M282.854 22.9151H282.4C282.304 22.9151 282.225 22.8434 282.169 22.7001L279.453 16.3375L278.832 23.1062C278.832 23.2814 278.745 23.369 278.562 23.369H278.068C277.901 23.369 277.813 23.2814 277.813 23.1142C277.948 21.7365 278.084 20.2952 278.219 18.9415C278.354 17.5797 278.49 16.2101 278.625 14.8324C278.625 14.7528 278.649 14.6891 278.705 14.6413C278.761 14.5935 278.824 14.5696 278.904 14.5696H279.629C279.756 14.5696 279.836 14.6413 279.883 14.7926L282.623 21.3543C283.069 20.2554 283.523 19.1565 283.969 18.0655C284.415 16.9745 284.868 15.8756 285.314 14.7767C285.354 14.6254 285.434 14.5537 285.561 14.5537H286.326C286.405 14.5537 286.469 14.5776 286.517 14.6333C286.565 14.6811 286.588 14.7448 286.588 14.8165L287.472 23.1301C287.472 23.3053 287.385 23.3929 287.202 23.3929H286.708C286.533 23.3929 286.453 23.3053 286.453 23.1381L285.768 16.3454L283.101 22.724C283.045 22.8434 282.965 22.9151 282.854 22.9151Z" fill="#1A4D3E"/>
<path d="M267.039 15.5658C267.134 15.6295 267.19 15.6932 267.19 15.7649C267.19 15.8047 267.182 15.8445 267.158 15.8764C267.142 15.9082 267.118 15.9401 267.102 15.964L266.863 16.3382C266.792 16.4338 266.728 16.4736 266.664 16.4736C266.64 16.4657 266.617 16.4577 266.577 16.4418C266.545 16.4338 266.505 16.4099 266.457 16.3781C266.171 16.171 265.852 16.0038 265.51 15.8764C265.167 15.749 264.817 15.6853 264.466 15.6853C263.965 15.6773 263.495 15.7649 263.081 15.948C262.659 16.1312 262.3 16.3701 261.99 16.6807C261.687 16.9912 261.44 17.3496 261.273 17.7557C261.098 18.1698 261.01 18.5998 261.002 19.0537C260.994 19.5315 261.082 19.9774 261.265 20.3995C261.448 20.8215 261.695 21.1799 262.006 21.4904C262.316 21.801 262.675 22.0399 263.081 22.2231C263.487 22.3983 263.917 22.4938 264.355 22.5018C264.642 22.5018 264.936 22.4699 265.215 22.3983C265.502 22.3266 265.812 22.1833 266.163 21.9842C266.242 21.9444 266.314 21.8966 266.394 21.8329C266.473 21.7692 266.537 21.7373 266.593 21.7373C266.664 21.7373 266.728 21.7851 266.784 21.8806L267.039 22.3266C267.062 22.3823 267.07 22.4301 267.07 22.4859C267.07 22.5734 267.023 22.6372 266.943 22.6849C266.569 22.9477 266.171 23.1548 265.733 23.2981C265.295 23.4414 264.825 23.5131 264.315 23.5051C263.71 23.4972 263.145 23.3698 262.611 23.1388C262.077 22.8999 261.624 22.5814 261.233 22.1833C260.843 21.7851 260.541 21.3153 260.318 20.7738C260.095 20.2323 259.983 19.6589 259.991 19.0537C259.999 18.4485 260.119 17.8751 260.357 17.3416C260.596 16.8081 260.915 16.3462 261.313 15.948C261.719 15.5499 262.181 15.2393 262.723 15.0163C263.256 14.7934 263.829 14.6819 264.435 14.6899C264.92 14.6978 265.374 14.7774 265.812 14.9287C266.266 15.0641 266.672 15.2871 267.039 15.5658Z" fill="#1A4D3E"/>
<path d="M299.059 22.1897C299.497 22.3649 299.935 22.4525 300.389 22.4525C300.842 22.4445 301.272 22.3649 301.679 22.1977C302.085 22.0304 302.443 21.7916 302.77 21.481C303.088 21.1625 303.343 20.7961 303.518 20.3582C303.693 19.9282 303.781 19.4902 303.773 19.0363C303.765 18.5903 303.677 18.1683 303.502 17.7622C303.327 17.364 303.088 16.9977 302.77 16.6792C302.451 16.3606 302.077 16.1058 301.639 15.9306C301.201 15.7554 300.763 15.6678 300.317 15.6678C299.871 15.6758 299.441 15.7634 299.043 15.9227C298.645 16.0899 298.278 16.3288 297.96 16.6393C297.641 16.9499 297.394 17.3242 297.211 17.7542C297.036 18.1842 296.948 18.6301 296.956 19.0761C296.964 19.522 297.052 19.952 297.219 20.3502C297.386 20.7484 297.633 21.1147 297.944 21.4332C298.246 21.7597 298.621 22.0145 299.059 22.1897ZM296.28 17.3799C296.51 16.8225 296.837 16.3367 297.251 15.9306C297.665 15.5245 298.135 15.2139 298.653 14.9989C299.17 14.7839 299.72 14.6724 300.309 14.6645C300.898 14.6565 301.472 14.768 302.045 15.0069C302.61 15.2378 303.096 15.5643 303.494 15.9784C303.9 16.3925 304.211 16.8623 304.426 17.3799C304.641 17.8975 304.752 18.447 304.768 19.0283C304.776 19.6096 304.673 20.183 304.434 20.7484C304.203 21.3058 303.876 21.7916 303.462 22.1977C303.048 22.6038 302.578 22.9144 302.061 23.1214C301.543 23.3364 300.994 23.4479 300.412 23.4559C299.831 23.4638 299.258 23.3523 298.692 23.1214C298.127 22.8905 297.641 22.564 297.235 22.1499C296.829 21.7358 296.51 21.266 296.295 20.7484C296.073 20.2308 295.961 19.6813 295.953 19.1C295.945 18.5107 296.049 17.9373 296.28 17.3799Z" fill="#1A4D3E"/>
</svg>
