<svg width="12" height="16" viewBox="0 0 12 16" fill="none" xmlns="http://www.w3.org/2000/svg">
<path d="M9.43998 3.88703C9.29493 3.74198 9.11032 3.57056 8.88615 3.38594C8.66197 3.20133 8.41143 3.01672 8.12133 2.85848C7.83122 2.68706 7.51475 2.54201 7.1719 2.42333C6.82905 2.30465 6.44664 2.23872 6.03786 2.22553C5.51039 2.21234 5.04887 2.26509 4.65327 2.38377C4.25768 2.50245 3.9412 2.67387 3.69066 2.88486C3.44011 3.09584 3.24231 3.3332 3.11045 3.61012C2.97858 3.87385 2.91265 4.15076 2.89946 4.44087C2.88628 4.75734 2.97858 5.04745 3.16319 5.29799C3.34781 5.54853 3.61154 5.75952 3.92801 5.94413C4.24449 6.12874 4.60053 6.28698 5.00931 6.43203C5.4049 6.57708 5.81369 6.70895 6.20928 6.84081C6.7763 7.01224 7.34332 7.19685 7.93672 7.40784C8.51692 7.60563 9.05757 7.86936 9.53229 8.17265C10.007 8.47594 10.4026 8.85835 10.6927 9.30669C10.996 9.75504 11.1279 10.3089 11.1015 10.9814C11.0751 11.6671 10.9169 12.2869 10.6268 12.8275C10.3367 13.3681 9.94107 13.8165 9.45317 14.1857C8.96527 14.5549 8.39825 14.8319 7.73892 15.0165C7.07959 15.2011 6.38071 15.2802 5.64226 15.2538C4.65327 15.2274 3.71703 14.9901 2.83353 14.5681C1.95003 14.133 1.22477 13.5132 0.631381 12.6956C0.539075 12.5506 0.486328 12.4319 0.486328 12.3528C0.486328 12.2341 0.55226 12.1418 0.670939 12.0495L1.29071 11.5484C1.38301 11.4825 1.47532 11.4561 1.58081 11.4561C1.67312 11.4561 1.75224 11.4957 1.83135 11.588C1.91047 11.6803 1.96322 11.733 1.98959 11.7594C2.25332 12.0627 2.5698 12.3264 2.89946 12.5638C3.24231 12.8011 3.58516 12.9989 3.92801 13.144C4.27086 13.3022 4.60053 13.4209 4.917 13.5132C5.23348 13.6055 5.49721 13.6451 5.73457 13.6583C6.13016 13.6714 6.53895 13.6319 6.9741 13.5396C7.40926 13.4473 7.80485 13.289 8.17408 13.078C8.53011 12.8671 8.8334 12.5901 9.07076 12.2605C9.30812 11.9308 9.43998 11.522 9.45317 11.0605C9.46635 10.6649 9.37405 10.3352 9.16306 10.0715C8.95208 9.80778 8.67516 9.57043 8.33231 9.37263C7.98946 9.17483 7.58068 8.99022 7.11915 8.84517C6.65763 8.70012 6.18291 8.55506 5.69501 8.41001C4.139 7.94848 2.97858 7.42102 2.22695 6.84081C1.47532 6.24742 1.1061 5.46942 1.14565 4.49361C1.15884 3.91341 1.29071 3.37276 1.54125 2.89804C1.79179 2.42333 2.12146 2.01454 2.5698 1.6717C3.01814 1.34203 3.53242 1.0783 4.139 0.906876C4.74558 0.735452 5.41809 0.656332 6.15654 0.682705C6.92135 0.709078 7.68617 0.89369 8.46418 1.26291C9.24218 1.61895 9.88832 2.08048 10.4158 2.63431C10.4949 2.72662 10.5608 2.81892 10.64 2.92442C10.7191 3.02991 10.7586 3.10903 10.7586 3.18815C10.7586 3.29364 10.7059 3.38594 10.6004 3.49144L10.007 4.03208C9.9147 4.12439 9.83558 4.16395 9.75646 4.16395C9.66415 4.09802 9.55866 4.03208 9.43998 3.88703Z" fill="#1A4D3E"/>
</svg>
