<svg width="152" height="155" viewBox="0 0 152 155" fill="none" xmlns="http://www.w3.org/2000/svg">
<path fill-rule="evenodd" clip-rule="evenodd" d="M11.1286 55.9707C11.1724 55.9895 11.214 55.9978 11.2536 55.9978L11.2598 55.9936C11.2931 55.9936 11.3243 55.9874 11.3535 55.9749C11.4326 55.9437 11.5013 55.8645 11.5513 55.7459L11.7865 55.1921C11.8657 55.0005 11.8261 54.8173 11.6637 54.6424L10.1626 53.1704L12.1238 48.5629L14.2496 48.6045C14.4661 48.615 14.6285 48.515 14.7139 48.3172L14.9491 47.7634C14.9949 47.6531 15.0095 47.5615 14.9908 47.4844C14.9762 47.4261 14.9366 47.347 14.8242 47.2991C14.8109 47.2932 14.7871 47.2862 14.752 47.276C14.7377 47.2718 14.7215 47.2671 14.7035 47.2616H14.693L14.6243 47.2658L4.00812 47.1367C3.95399 47.1367 3.8832 47.145 3.79992 47.1659C3.70207 47.1909 3.62503 47.27 3.56882 47.4032L3.4085 47.778C3.34812 47.9196 3.34396 48.0341 3.39601 48.1174C3.43973 48.1861 3.48137 48.2381 3.51885 48.2756C3.55496 48.3148 3.61829 48.3789 3.70706 48.4688C3.73602 48.4981 3.76769 48.5302 3.802 48.565C3.9415 48.7066 4.15803 48.9273 4.45368 49.2312C4.74724 49.5352 5.17197 49.9703 5.72371 50.5346C5.83131 50.6446 5.94446 50.7604 6.06316 50.8818C6.55312 51.383 7.13778 51.981 7.81822 52.6749C8.66352 53.5368 9.70661 54.5987 10.9454 55.8541C10.9662 55.8791 10.9912 55.8979 11.0058 55.902C11.0474 55.9291 11.0891 55.9541 11.1286 55.9707ZM9.14447 52.1336L5.39891 48.413H5.40099L10.6727 48.5442L9.14447 52.1336Z" fill="#BEC91B"/>
<path fill-rule="evenodd" clip-rule="evenodd" d="M17.3733 42.6097C17.442 42.6576 17.517 42.6825 17.594 42.6825V42.6805C17.6211 42.6805 17.6482 42.6784 17.6752 42.6721C17.7793 42.6513 17.8647 42.593 17.9292 42.5014L22.0912 36.5489C22.1557 36.4573 22.1786 36.3553 22.1536 36.247C22.1307 36.1429 22.0766 36.0596 21.9912 35.9993L21.5228 35.6724C21.4145 35.5953 21.3083 35.5683 21.2063 35.5891C21.1085 35.6099 21.0252 35.6661 20.9606 35.7577L17.669 40.4673L14.6417 30.9837C14.6167 30.8983 14.5584 30.8213 14.4689 30.7588L13.938 30.3882C13.836 30.3174 13.7319 30.2945 13.6278 30.3216C13.5278 30.3466 13.4446 30.4049 13.3821 30.4965L9.32424 36.2991C9.17433 36.5135 9.2014 36.7113 9.40544 36.8529L9.89679 37.1964C10.003 37.2693 10.105 37.2984 10.2008 37.2797C10.2965 37.261 10.3819 37.1964 10.4569 37.0902L13.6757 32.4848L16.6738 41.9767C16.6883 42.0579 16.7133 42.1162 16.7529 42.1579C16.7862 42.1912 16.8195 42.2224 16.8549 42.2474L17.3733 42.6097Z" fill="#C1F0A4"/>
<path fill-rule="evenodd" clip-rule="evenodd" d="M26.0998 31.3459C26.1872 31.4376 26.2788 31.4834 26.3725 31.4834L26.3704 31.4813C26.46 31.4813 26.5495 31.4396 26.6349 31.3584L27.0617 30.9524C27.1491 30.8692 27.197 30.7796 27.197 30.688C27.1991 30.5943 27.1574 30.5027 27.0721 30.4153L24.607 27.8336L26.462 26.0618C26.7931 25.7453 27.045 25.381 27.2116 24.977C27.3781 24.5731 27.4656 24.1567 27.4656 23.7382C27.4677 23.3198 27.3885 22.9034 27.2324 22.4974C27.0742 22.0914 26.841 21.7249 26.537 21.4064C26.2268 21.0816 25.8666 20.8255 25.4648 20.6464C25.065 20.4674 24.6486 20.3695 24.226 20.355C23.8054 20.3425 23.3807 20.4112 22.9663 20.5611C22.552 20.7131 22.171 20.9525 21.8337 21.2731L19.3186 23.6737C19.2291 23.7591 19.1833 23.8507 19.1812 23.9464C19.1791 24.0464 19.2249 24.1442 19.3186 24.2421L26.0998 31.3459ZM23.6825 26.8654L20.9364 23.9881L20.9384 23.986L22.7644 22.2433C22.958 22.058 23.1829 21.9206 23.4285 21.8353C23.6763 21.7499 23.9303 21.7104 24.1802 21.7208C24.4321 21.7291 24.6819 21.7874 24.9234 21.8894C25.1629 21.9914 25.3752 22.1392 25.5564 22.3287C25.7354 22.5182 25.8749 22.7389 25.9644 22.9825C26.0561 23.2281 26.0998 23.4822 26.0935 23.7362C26.0873 23.9922 26.0373 24.2442 25.9436 24.4836C25.8478 24.723 25.7021 24.9375 25.5085 25.1228L23.6825 26.8654Z" fill="#BEC91B"/>
<path fill-rule="evenodd" clip-rule="evenodd" d="M36.6135 22.7553C36.6322 22.7615 36.6488 22.7615 36.6676 22.7615L36.6697 22.7595C36.7446 22.7595 36.8217 22.7324 36.9029 22.6762L37.388 22.3431C37.49 22.2744 37.5483 22.1932 37.5649 22.1036C37.5816 22.0141 37.5545 21.9162 37.4858 21.8163L31.9081 13.6985C31.7686 13.4945 31.5791 13.4612 31.3793 13.5986L30.8941 13.9317C30.7921 14.0025 30.7338 14.0816 30.7172 14.1732C30.7005 14.2627 30.7276 14.3606 30.7963 14.4605L36.374 22.5783C36.4427 22.6783 36.5239 22.7386 36.6135 22.7553Z" fill="#C1F0A4"/>
<path fill-rule="evenodd" clip-rule="evenodd" d="M45.7707 17.3779C45.8079 17.3902 45.845 17.3965 45.8842 17.3966C45.8838 17.3966 45.8835 17.3966 45.8832 17.3966H45.8852C45.8849 17.3966 45.8845 17.3966 45.8842 17.3966C45.9442 17.3964 46.0043 17.3818 46.0664 17.3529L46.5848 17.1072C46.6972 17.0551 46.768 16.9781 46.7992 16.8803C46.8284 16.7845 46.8221 16.6887 46.7784 16.595L42.985 8.58757L45.6208 7.33835C45.7395 7.28214 45.8165 7.20094 45.8436 7.09684C45.8707 6.9969 45.8603 6.89488 45.8124 6.79495L45.5625 6.26611C45.5001 6.15993 45.4168 6.0933 45.3168 6.0704C45.219 6.0475 45.1253 6.05791 45.0337 6.10163L38.5211 9.1851C38.2921 9.29337 38.2255 9.47451 38.3296 9.69728L38.5773 10.2199C38.6898 10.4572 38.8772 10.5301 39.1083 10.4218L41.7566 9.16845L45.55 17.1759C45.5979 17.28 45.6729 17.3466 45.7707 17.3779Z" fill="#BEC91B"/>
<path fill-rule="evenodd" clip-rule="evenodd" d="M55.7507 13.4997C55.7965 13.5247 55.8485 13.5372 55.9068 13.5372V13.5414C55.9505 13.5414 55.9984 13.533 56.0484 13.5184L56.6147 13.3561C56.85 13.2894 56.9416 13.1208 56.8729 12.8855L54.1371 3.42482C54.1038 3.30614 54.0455 3.22286 53.9643 3.17914C53.8831 3.13333 53.7831 3.12917 53.6666 3.16248L53.1002 3.32488C52.865 3.3915 52.7734 3.56015 52.8421 3.79541L55.5778 13.2561C55.6132 13.3727 55.6695 13.456 55.7507 13.4997Z" fill="#C1F0A4"/>
<path fill-rule="evenodd" clip-rule="evenodd" d="M62.7204 11.448C62.7308 11.5479 62.7891 11.7062 63.039 11.7062L63.0369 11.7103C63.0601 11.7103 63.0833 11.7085 63.1081 11.7066L63.1139 11.7062L63.7135 11.6396C63.9197 11.6167 64.0612 11.4917 64.1341 11.2648L64.6817 9.23274L69.6598 8.68309L70.6654 10.5548C70.7633 10.7526 70.9257 10.8421 71.1422 10.8192L71.7418 10.7526C72.0687 10.7172 72.0978 10.5278 72.0853 10.4174C72.0833 10.3966 72.0728 10.3549 72.0562 10.2946L66.924 0.908823C66.8969 0.856773 66.8553 0.80264 66.797 0.742262C66.7283 0.669391 66.6221 0.640243 66.4785 0.656899L66.0745 0.700621C65.9205 0.717278 65.8185 0.769328 65.7727 0.856773C65.7352 0.927562 65.7102 0.98794 65.6956 1.03999C65.6748 1.1087 65.6373 1.23778 65.5832 1.42933C65.5378 1.5899 65.469 1.8251 65.378 2.13614C65.3605 2.19613 65.3421 2.25895 65.3229 2.3246C65.2043 2.73059 65.0335 3.31147 64.8108 4.06933C64.588 4.82718 64.309 5.78491 63.9717 6.9446C63.6344 8.10428 63.2201 9.53463 62.7329 11.2294C62.7204 11.2606 62.7162 11.2919 62.7204 11.3064C62.7162 11.3585 62.7162 11.4064 62.7204 11.448ZM65.0918 7.83362L66.4993 2.74725V2.74516L68.9686 7.40473L65.0918 7.83362Z" fill="#BEC91B"/>
<path fill-rule="evenodd" clip-rule="evenodd" d="M95.1694 13.843C95.2194 13.8555 95.2652 13.8618 95.3068 13.8618L95.311 13.8597C95.4817 13.8597 95.6004 13.7598 95.6483 13.5682L98.0697 4.02216C98.0988 3.91181 98.0822 3.80979 98.0197 3.72235C97.9593 3.63907 97.8802 3.58285 97.7823 3.55787L97.2244 3.41629C97.1036 3.38714 97.0016 3.40172 96.9183 3.46001C96.8392 3.51623 96.7871 3.59534 96.7622 3.6932L95.7794 7.56367L89.9081 6.07503L90.8909 2.20456C90.9179 2.10254 90.8992 2.00468 90.8409 1.91307C90.7826 1.82146 90.7035 1.76317 90.6035 1.73818L90.0456 1.59661C89.9248 1.56746 89.8228 1.58203 89.7395 1.64033C89.6604 1.69654 89.6083 1.77566 89.5834 1.87351L87.162 11.4196C87.0995 11.6569 87.1974 11.8214 87.4347 11.8818L87.9781 12.0192C88.2321 12.0837 88.407 11.988 88.4674 11.7506L89.5771 7.37421L95.4484 8.86286L94.3387 13.2393C94.2762 13.4766 94.3741 13.6411 94.6114 13.7015L95.1694 13.843Z" fill="#BEC91B"/>
<path fill-rule="evenodd" clip-rule="evenodd" d="M108.016 19.2836C108.167 19.294 108.319 19.3003 108.469 19.3003H108.471C109.025 19.3003 109.567 19.2191 110.087 19.0609C110.749 18.8589 111.368 18.5299 111.923 18.0844C112.479 17.6388 112.939 17.0767 113.291 16.4146C113.645 15.7442 113.858 15.0405 113.918 14.3201C113.978 13.6018 113.906 12.9022 113.701 12.2402C113.497 11.5802 113.168 10.9618 112.723 10.4038C112.277 9.84584 111.717 9.38571 111.059 9.03593C110.401 8.68823 109.706 8.4842 108.994 8.42798C108.282 8.37177 107.585 8.4488 106.92 8.65492C106.256 8.86104 105.636 9.19417 105.078 9.64388C104.52 10.0936 104.06 10.6578 103.708 11.3199C103.356 11.982 103.148 12.6795 103.089 13.3957C103.029 14.1098 103.102 14.8073 103.302 15.4652C103.502 16.1231 103.829 16.7415 104.274 17.2995C104.72 17.8575 105.28 18.3176 105.938 18.6674C106.604 19.0213 107.303 19.2274 108.016 19.2836ZM104.447 13.5019C104.493 12.9647 104.651 12.4421 104.913 11.9445L104.915 11.9424C105.18 11.4448 105.523 11.0222 105.94 10.687C106.356 10.3518 106.818 10.1019 107.314 9.94786C107.811 9.79587 108.334 9.73965 108.869 9.78338C109.404 9.8271 109.925 9.98325 110.418 10.2435C110.912 10.5038 111.33 10.8473 111.663 11.2637C111.996 11.6801 112.24 12.1423 112.392 12.6399C112.544 13.1354 112.596 13.658 112.552 14.1931C112.506 14.7261 112.35 15.2487 112.088 15.7442C111.826 16.2397 111.48 16.6645 111.061 17.0059C110.641 17.3474 110.177 17.5993 109.679 17.7575C109.181 17.9157 108.661 17.974 108.128 17.9324C107.597 17.8908 107.079 17.7367 106.585 17.4764C106.092 17.2141 105.671 16.8706 105.334 16.4521C104.997 16.0336 104.749 15.5672 104.601 15.0675C104.451 14.5658 104.399 14.039 104.447 13.5019Z" fill="#C1F0A4"/>
<path fill-rule="evenodd" clip-rule="evenodd" d="M123.85 31.9251C123.94 32.0063 124.031 32.0479 124.121 32.0479V32.0459C124.219 32.0459 124.314 31.998 124.402 31.9001L130.273 23.9364C130.342 23.8594 130.377 23.7698 130.377 23.6699C130.377 23.5658 130.334 23.4763 130.25 23.3992L129.576 22.785C129.482 22.6997 129.322 22.631 129.101 22.7746C127.812 23.3847 126.528 23.9884 125.247 24.5901C124.888 24.7595 124.528 24.9291 124.167 25.0988C123.296 25.5091 122.423 25.9204 121.549 26.3328L124.385 18.4877C124.5 18.2379 124.414 18.0859 124.321 18.0005L123.677 17.4155C123.596 17.3405 123.502 17.301 123.398 17.2989C123.288 17.2968 123.198 17.3364 123.126 17.4176C121.887 18.5273 120.656 19.6287 119.436 20.7176C118.216 21.8086 116.988 22.9079 115.743 24.0238C115.576 24.207 115.584 24.3965 115.766 24.561L116.201 24.9566C116.388 25.1273 116.582 25.119 116.742 24.9441L122.511 19.7141L119.848 27.2676C119.78 27.4717 119.799 27.6236 119.905 27.7194L120.309 28.0879C120.392 28.165 120.54 28.2274 120.775 28.1108L128.047 24.7567L123.392 30.9924C123.309 31.084 123.269 31.1756 123.273 31.2672C123.278 31.3588 123.325 31.4483 123.415 31.5295L123.85 31.9251Z" fill="#BEC91B"/>
<path fill-rule="evenodd" clip-rule="evenodd" d="M132.302 43.1117C132.319 43.1159 132.338 43.1159 132.354 43.1159V43.1221C132.429 43.1221 132.508 43.093 132.589 43.0368L133.066 42.7078C133.174 42.6329 133.239 42.5475 133.26 42.4538C133.279 42.358 133.254 42.256 133.181 42.1519L129.879 37.3612L132.783 35.3604L135.377 39.1226C135.448 39.2246 135.538 39.2808 135.644 39.2871C135.742 39.2933 135.837 39.2662 135.919 39.21L136.395 38.8811C136.506 38.804 136.566 38.7145 136.577 38.6146C136.587 38.5188 136.562 38.4272 136.506 38.3439L133.912 34.5817L136.362 32.8932L139.633 37.6381C139.702 37.7401 139.793 37.7984 139.899 37.8088C139.999 37.8192 140.097 37.7963 140.18 37.738L140.657 37.4091C140.868 37.2633 140.907 37.0739 140.768 36.8719L136.941 31.3192C136.87 31.2171 136.789 31.1589 136.695 31.1443C136.604 31.1297 136.504 31.1589 136.4 31.2296L128.29 36.8178C128.094 36.9531 128.063 37.1363 128.203 37.3383L132.061 42.9368C132.131 43.0368 132.213 43.0951 132.302 43.1117Z" fill="#C1F0A4"/>
<path fill-rule="evenodd" clip-rule="evenodd" d="M139.555 54.3727C139.615 54.3768 139.675 54.3789 139.738 54.3789L139.734 54.3768C140.138 54.3768 140.55 54.2873 140.962 54.1124C141.433 53.9125 141.778 53.6356 141.991 53.2879C142.199 52.9444 142.336 52.555 142.395 52.1324C142.453 51.7139 142.461 51.2684 142.415 50.8124C142.372 50.3544 142.318 49.9067 142.257 49.4841C142.22 49.1759 142.184 48.8636 142.153 48.5555C142.124 48.2515 142.12 47.9621 142.143 47.6977C142.166 47.4395 142.23 47.2105 142.332 47.0169C142.432 46.8295 142.584 46.6921 142.784 46.6067C142.965 46.5297 143.163 46.4901 143.373 46.4943C143.581 46.4964 143.794 46.5484 144.002 46.6484C144.212 46.7483 144.416 46.9086 144.612 47.1251C144.81 47.3417 144.985 47.6311 145.135 47.9829C145.247 48.2494 145.318 48.5159 145.345 48.7762C145.37 49.0364 145.372 49.2904 145.349 49.5299C145.326 49.7693 145.287 49.9921 145.232 50.194C145.176 50.396 145.124 50.5709 145.074 50.7125C145.016 50.854 145.005 50.9644 145.043 51.0518C145.072 51.1226 145.139 51.1768 145.243 51.2184L145.786 51.4453C145.903 51.4911 146.007 51.4974 146.092 51.4599C146.161 51.4308 146.217 51.3683 146.267 51.2684L146.39 51.0227C146.598 50.4918 146.704 49.9005 146.706 49.2634C146.709 48.6242 146.598 48.0371 146.375 47.5145C146.163 47.0106 145.897 46.5734 145.591 46.2174C145.282 45.8593 144.939 45.5782 144.57 45.3846C144.2 45.1889 143.808 45.0827 143.404 45.0681C142.996 45.0535 142.588 45.1326 142.184 45.3055C141.508 45.5928 141.081 46.0987 140.914 46.8066C140.752 47.4999 140.76 48.4535 140.937 49.6423C140.993 50.0129 141.041 50.3773 141.085 50.727C141.127 51.0727 141.135 51.3954 141.108 51.6848C141.081 51.97 141.012 52.224 140.902 52.4364C140.796 52.6425 140.614 52.8007 140.363 52.9069C140.065 53.0339 139.769 53.0714 139.486 53.0193C139.197 52.9673 138.926 52.8528 138.682 52.6841C138.435 52.5113 138.212 52.2969 138.02 52.0429C137.827 51.7868 137.673 51.5265 137.562 51.2663C137.5 51.1185 137.448 50.9248 137.408 50.6937C137.369 50.4626 137.348 50.2065 137.348 49.9317C137.346 49.661 137.371 49.3716 137.421 49.0739C137.471 48.7803 137.554 48.4951 137.671 48.2265L137.733 48.0704C137.773 47.9725 137.777 47.883 137.743 47.806C137.708 47.7227 137.648 47.6561 137.562 47.604L137.038 47.3417C136.925 47.2792 136.817 47.2688 136.719 47.3104C136.644 47.3438 136.571 47.4187 136.496 47.5436C136.124 48.1953 135.926 48.8969 135.911 49.6277C135.897 50.3585 136.036 51.0706 136.323 51.7472C136.542 52.2594 136.819 52.7133 137.148 53.0964C137.477 53.4815 137.847 53.7855 138.251 54C138.655 54.2165 139.095 54.3414 139.555 54.3727Z" fill="#BEC91B"/>
<path d="M7.82207 79.8072C9.10532 79.8072 10.1456 78.7669 10.1456 77.4837C10.1456 76.2004 9.10532 75.1602 7.82207 75.1602C6.53882 75.1602 5.49854 76.2004 5.49854 77.4837C5.49854 78.7669 6.53882 79.8072 7.82207 79.8072Z" fill="#BEC91B"/>
<path d="M7.82009 73.976C7.50778 73.976 7.25586 73.724 7.25586 73.4117V70.2949C7.25586 69.9826 7.50778 69.7307 7.82009 69.7307C8.13239 69.7307 8.38431 69.9826 8.38431 70.2949V73.4117C8.38431 73.724 8.13239 73.976 7.82009 73.976Z" fill="#BEC91B"/>
<path d="M7.82009 85.567C7.50778 85.567 7.25586 85.315 7.25586 85.0027V82.0879C7.25586 81.7756 7.50778 81.5237 7.82009 81.5237C8.13239 81.5237 8.38431 81.7756 8.38431 82.0879V85.0027C8.38431 85.315 8.13239 85.567 7.82009 85.567Z" fill="#BEC91B"/>
<path d="M15.0718 78.316H12.157C11.8447 78.316 11.5928 78.064 11.5928 77.7517C11.5928 77.4394 11.8447 77.1875 12.157 77.1875H15.0718C15.3841 77.1875 15.6361 77.4394 15.6361 77.7517C15.6361 78.064 15.3841 78.316 15.0718 78.316Z" fill="#BEC91B"/>
<path d="M3.47906 78.316H0.564227C0.251924 78.316 0 78.064 0 77.7517C0 77.4394 0.251924 77.1875 0.564227 77.1875H3.47906C3.79136 77.1875 4.04328 77.4394 4.04328 77.7517C4.04328 78.064 3.79136 78.316 3.47906 78.316Z" fill="#BEC91B"/>
<path d="M10.8162 75.2228C10.6726 75.2228 10.5268 75.1686 10.4165 75.0583C10.1958 74.8376 10.1958 74.4816 10.4165 74.2609L12.6193 72.0581C12.84 71.8374 13.196 71.8374 13.4167 72.0581C13.6374 72.2788 13.6374 72.6348 13.4167 72.8555L11.2139 75.0583C11.1036 75.1686 10.9599 75.2228 10.8142 75.2228H10.8162Z" fill="#BEC91B"/>
<path d="M2.61751 83.4171C2.47386 83.4171 2.32811 83.363 2.21777 83.2527C1.99707 83.032 1.99707 82.6759 2.21777 82.4552L4.27897 80.394C4.49966 80.1733 4.85569 80.1733 5.07638 80.394C5.29707 80.6147 5.29707 80.9708 5.07638 81.1915L3.01518 83.2527C2.90483 83.363 2.76117 83.4171 2.61543 83.4171H2.61751Z" fill="#BEC91B"/>
<path d="M12.8774 83.4171C12.7338 83.4171 12.588 83.363 12.4777 83.2527L10.4165 81.1915C10.1958 80.9708 10.1958 80.6126 10.4165 80.394C10.6372 80.1733 10.9932 80.1733 11.2139 80.394L13.2751 82.4552C13.4958 82.6759 13.4958 83.034 13.2751 83.2527C13.1648 83.363 13.0211 83.4171 12.8754 83.4171H12.8774Z" fill="#BEC91B"/>
<path d="M4.67871 75.2199C4.53505 75.2199 4.38931 75.1657 4.27897 75.0554L2.21777 72.9942C1.99707 72.7735 1.99707 72.4175 2.21777 72.1968C2.43846 71.9761 2.79449 71.9761 3.01518 72.1968L5.07638 74.258C5.29707 74.4787 5.29707 74.8347 5.07638 75.0554C4.96603 75.1657 4.82237 75.2199 4.67663 75.2199H4.67871Z" fill="#BEC91B"/>
<path d="M143.243 79.8072C144.527 79.8072 145.567 78.7669 145.567 77.4837C145.567 76.2004 144.527 75.1602 143.243 75.1602C141.96 75.1602 140.92 76.2004 140.92 77.4837C140.92 78.7669 141.96 79.8072 143.243 79.8072Z" fill="#BEC91B"/>
<path d="M143.245 73.976C142.933 73.976 142.681 73.724 142.681 73.4117V70.2949C142.681 69.9826 142.933 69.7307 143.245 69.7307C143.558 69.7307 143.81 69.9826 143.81 70.2949V73.4117C143.81 73.724 143.558 73.976 143.245 73.976Z" fill="#BEC91B"/>
<path d="M143.245 85.567C142.933 85.567 142.681 85.315 142.681 85.0027V82.0879C142.681 81.7756 142.933 81.5237 143.245 81.5237C143.558 81.5237 143.81 81.7756 143.81 82.0879V85.0027C143.81 85.315 143.558 85.567 143.245 85.567Z" fill="#BEC91B"/>
<path d="M150.496 78.316H147.581C147.269 78.316 147.017 78.064 147.017 77.7517C147.017 77.4394 147.269 77.1875 147.581 77.1875H150.496C150.808 77.1875 151.06 77.4394 151.06 77.7517C151.06 78.064 150.808 78.316 150.496 78.316Z" fill="#BEC91B"/>
<path d="M138.902 78.316H135.988C135.675 78.316 135.423 78.064 135.423 77.7517C135.423 77.4394 135.675 77.1875 135.988 77.1875H138.902C139.215 77.1875 139.467 77.4394 139.467 77.7517C139.467 78.064 139.215 78.316 138.902 78.316Z" fill="#BEC91B"/>
<path d="M146.24 75.2228C146.096 75.2228 145.951 75.1686 145.84 75.0583C145.62 74.8376 145.62 74.4816 145.84 74.2609L148.043 72.0581C148.264 71.8374 148.62 71.8374 148.841 72.0581C149.061 72.2788 149.061 72.6348 148.841 72.8555L146.638 75.0583C146.527 75.1686 146.384 75.2228 146.238 75.2228H146.24Z" fill="#BEC91B"/>
<path d="M138.043 83.4171C137.899 83.4171 137.753 83.363 137.643 83.2527C137.422 83.032 137.422 82.6759 137.643 82.4552L139.704 80.394C139.925 80.1733 140.281 80.1733 140.502 80.394C140.722 80.6147 140.722 80.9708 140.502 81.1915L138.44 83.2527C138.33 83.363 138.186 83.4171 138.041 83.4171H138.043Z" fill="#BEC91B"/>
<path d="M148.301 83.4171C148.158 83.4171 148.012 83.363 147.902 83.2527L145.84 81.1915C145.62 80.9708 145.62 80.6147 145.84 80.394C146.061 80.1733 146.417 80.1733 146.638 80.394L148.699 82.4552C148.92 82.6759 148.92 83.032 148.699 83.2527C148.589 83.363 148.445 83.4171 148.299 83.4171H148.301Z" fill="#BEC91B"/>
<path d="M140.104 75.2199C139.96 75.2199 139.815 75.1657 139.704 75.0554L137.643 72.9942C137.422 72.7735 137.422 72.4154 137.643 72.1968C137.864 71.9761 138.22 71.9761 138.44 72.1968L140.502 74.258C140.722 74.4787 140.722 74.8368 140.502 75.0554C140.391 75.1657 140.248 75.2199 140.102 75.2199H140.104Z" fill="#BEC91B"/>
<path fill-rule="evenodd" clip-rule="evenodd" d="M43.2283 67.8084L48.0021 63.7947C48.8203 64.8669 49.5905 66.0391 50.2564 67.306C50.5486 67.8619 50.8552 68.6657 51.104 69.631L51.0375 69.687C50.9771 69.7196 50.9242 69.7643 50.882 69.8179L39.9785 78.9937V70.645L43.2283 67.8084ZM39.9785 80.3L51.3469 70.7329C51.7024 72.6566 51.7875 75.0018 51.1838 77.2675C50.6574 79.2425 49.6104 81.1486 47.7672 82.6733C46.0131 84.1241 43.5087 85.2539 39.9785 85.7457V80.3ZM38.979 85.7202V80.0711V80.0643V77.9962L38.9724 77.9908L28.5149 69.3832C27.8937 71.4904 27.4939 74.4481 28.169 77.2779C28.6398 79.2514 29.6306 81.1534 31.4285 82.6745C33.1134 84.1 35.5379 85.2167 38.979 85.7202ZM38.979 70.5243V76.7018L28.8539 68.3677C29.01 67.954 29.17 67.5952 29.3232 67.3037L29.3232 67.3036C29.9829 66.0483 30.7451 64.8858 31.5548 63.8217L38.9572 70.5056C38.9643 70.5121 38.9716 70.5183 38.979 70.5243ZM39.4932 69.643L42.578 67.0494L47.3076 62.9212C44.4129 59.4227 41.1369 57.1292 39.7866 56.2621C38.4156 57.1439 35.088 59.4773 32.1755 63.0355L39.4932 69.643ZM28.4385 66.8387C28.2325 67.2307 28.0169 67.7279 27.8127 68.3072C27.7947 68.3439 27.7815 68.3823 27.773 68.4213C26.9915 70.6965 26.3999 74.1694 27.1968 77.5098C27.709 79.6566 28.7975 81.7578 30.783 83.4375C32.6644 85.0293 35.3196 86.216 38.979 86.7299V92.5253V92.8928H29.5862C29.3102 92.8928 29.0865 93.1166 29.0865 93.3926C29.0865 93.6686 29.3102 93.8923 29.5862 93.8923H109.748C109.759 93.8929 109.769 93.8932 109.779 93.8932L109.794 93.893L109.811 93.8923H121.932C122.208 93.8923 122.432 93.6686 122.432 93.3926C122.432 93.1166 122.208 92.8928 121.932 92.8928H110.279V85.8026L110.361 85.8124L110.407 85.8179C110.566 85.8364 110.715 85.7787 110.82 85.6739C114.256 85.1284 116.801 83.9732 118.649 82.4475C120.681 80.7692 121.837 78.6692 122.417 76.521C123.569 72.2549 122.463 67.7643 121.442 65.822C118.103 59.4683 112.273 55.4422 110.499 54.3192C110.397 54.1947 110.244 54.1301 110.089 54.1375C109.935 54.1301 109.781 54.1947 109.679 54.3192C108.34 55.1669 104.689 57.6692 101.544 61.5784L91.5211 53.4287C91.4175 53.3445 91.2888 53.3078 91.1633 53.3185C91.1493 53.3173 91.135 53.3167 91.1206 53.3167H59.1658C59.1536 53.3167 59.1415 53.3171 59.1295 53.318C59.0043 53.3089 58.8756 53.3467 58.7719 53.4339L48.1463 62.3677C44.9741 58.5056 41.3498 56.0608 40.1109 55.2842C40.0752 55.2543 40.0358 55.23 39.9941 55.2115L39.9355 55.1754C39.7002 55.0312 39.3925 55.1051 39.2484 55.3405C39.2263 55.3765 39.2093 55.4143 39.1973 55.4529C37.2357 56.7205 31.6695 60.6898 28.4385 66.8387ZM70.7852 54.3745L52.6607 69.6272H61.5943L79.1409 54.3161H70.844C70.8263 54.3369 70.8067 54.3564 70.7852 54.3745ZM80.6528 54.3161C80.637 54.3346 80.6197 54.3522 80.6008 54.3687L63.1145 69.6272H71.412C71.4735 69.6272 71.5325 69.6383 71.5869 69.6587L89.8349 54.3161H80.6528ZM51.9458 68.9225L69.3023 54.3161H59.2756L48.7678 63.151C49.6284 64.2748 50.4398 65.5066 51.1411 66.841C51.4174 67.3666 51.7013 68.0788 51.9458 68.9225ZM52.1495 77.5248C52.787 75.1325 52.7122 72.6699 52.3434 70.6267H71.0913V92.8928H39.9785V92.5253V86.7545C43.7237 86.2532 46.4554 85.0554 48.4042 83.4434C50.4306 81.7672 51.5779 79.6701 52.1495 77.5248ZM118.012 81.6769C116.263 83.1213 113.775 84.2476 110.279 84.7445V79.4577C110.315 79.4324 110.348 79.4019 110.378 79.3662C110.441 79.289 110.478 79.1984 110.489 79.106L121.672 69.9C121.993 71.7904 122.046 74.0625 121.452 76.2604C120.917 78.2392 119.862 80.1492 118.012 81.6769ZM109.28 77.8149V69.4155C109.279 69.4016 109.279 69.3877 109.28 69.3738V69.1571L101.706 62.9989C100.951 64.0099 100.241 65.1074 99.621 66.287L99.621 66.287C99.2833 66.9293 98.9285 67.9043 98.6673 69.078L109.28 77.8149ZM98.4581 70.2004C98.1816 72.0284 98.164 74.1777 98.7265 76.2604C99.2609 78.2392 100.316 80.1492 102.166 81.6769C103.81 83.0345 106.107 84.1111 109.28 84.6481V79.1095L98.4581 70.2004ZM110.279 69.6212V77.9837L121.445 68.7926C121.192 67.7462 120.867 66.8765 120.557 66.287L120.557 66.287C119.872 64.9821 119.075 63.7777 118.23 62.6797L110.279 69.6212ZM117.606 61.8979L110.05 68.4949L102.319 62.2089C105.271 58.5386 108.697 56.1368 110.089 55.243C111.441 56.1113 114.713 58.4029 117.606 61.8979ZM100.93 62.3679L91.2111 54.4648L72.0908 70.5408V92.8928H90.8794V78.1152C90.8794 77.8392 91.1032 77.6155 91.3792 77.6155C91.6552 77.6155 91.8789 77.8392 91.8789 78.1152V92.8928H109.28V85.6612C105.883 85.1106 103.363 83.9615 101.53 82.4475C99.4974 80.7692 98.3418 78.6692 97.7616 76.521C96.6094 72.2549 97.7153 67.7643 98.7363 65.822C99.3888 64.5803 100.136 63.4275 100.93 62.3679ZM39.1519 99.8164C39.1519 99.5404 39.3756 99.3167 39.6516 99.3167H110.819C111.095 99.3167 111.319 99.5404 111.319 99.8164C111.319 100.092 111.095 100.316 110.819 100.316H39.6516C39.3756 100.316 39.1519 100.092 39.1519 99.8164ZM85.1103 78.1152C85.1103 77.8392 84.8866 77.6155 84.6106 77.6155C84.3346 77.6155 84.1109 77.8392 84.1109 78.1152V83.1933C84.1109 83.4693 84.3346 83.693 84.6106 83.693C84.8866 83.693 85.1103 83.4693 85.1103 83.1933V78.1152ZM63.5159 77.6155C63.7919 77.6155 64.0156 77.8392 64.0156 78.1152V83.1933C64.0156 83.4693 63.7919 83.693 63.5159 83.693C63.2399 83.693 63.0161 83.4693 63.0161 83.1933V78.1152C63.0161 77.8392 63.2399 77.6155 63.5159 77.6155ZM97.6577 78.1152C97.6577 77.8392 97.434 77.6155 97.158 77.6155C96.882 77.6155 96.6582 77.8392 96.6582 78.1152V83.1933C96.6582 83.4693 96.882 83.693 97.158 83.693C97.434 83.693 97.6577 83.4693 97.6577 83.1933V78.1152ZM57.2712 77.6155C57.5472 77.6155 57.771 77.8392 57.771 78.1152V83.1933C57.771 83.4693 57.5472 83.693 57.2712 83.693C56.9953 83.693 56.7715 83.4693 56.7715 83.1933V78.1152C56.7715 77.8392 56.9953 77.6155 57.2712 77.6155Z" fill="#BEC91B"/>
<path d="M12.7853 105.327C12.7582 105.462 12.7062 105.543 12.6292 105.572C12.5875 105.589 12.5417 105.593 12.4959 105.587C12.4501 105.581 12.4105 105.572 12.3793 105.566L11.8588 105.458C11.7276 105.42 11.6506 105.366 11.6256 105.299C11.6256 105.27 11.6235 105.235 11.6215 105.193C11.6215 105.15 11.6277 105.098 11.6423 105.035C11.7505 104.629 11.8005 104.211 11.7901 103.782C11.7797 103.353 11.7027 102.945 11.5569 102.555C11.3487 101.997 11.0572 101.527 10.6804 101.144C10.3035 100.761 9.88298 100.465 9.41452 100.261C8.94607 100.057 8.44846 99.9466 7.92588 99.9299C7.40121 99.9133 6.88903 100.001 6.38726 100.188C5.86051 100.386 5.40663 100.673 5.02562 101.052C4.64461 101.431 4.35105 101.856 4.14493 102.326C3.93881 102.797 3.8243 103.294 3.80348 103.819C3.78058 104.342 3.86177 104.848 4.04499 105.337C4.16575 105.658 4.32606 105.957 4.52802 106.238C4.72998 106.52 5.0173 106.807 5.38789 107.1C5.46077 107.169 5.55029 107.232 5.65439 107.29C5.75849 107.348 5.82096 107.406 5.84386 107.465C5.87301 107.54 5.84802 107.631 5.77099 107.738L5.39622 108.21C5.34625 108.258 5.29212 108.293 5.23174 108.314C5.13805 108.35 5.04853 108.329 4.96316 108.256C4.51345 107.962 4.11786 107.606 3.77225 107.186C3.42663 106.767 3.14972 106.278 2.94152 105.722C2.69168 105.056 2.5855 104.381 2.62089 103.698C2.65628 103.015 2.81035 102.376 3.08518 101.779C3.36001 101.181 3.74518 100.644 4.2407 100.171C4.73622 99.6967 5.31919 99.3345 5.99168 99.0846C6.66209 98.8348 7.34083 98.7244 8.02581 98.7578C8.7108 98.7911 9.35623 98.943 9.96209 99.2158C10.568 99.4885 11.1072 99.8716 11.5819 100.363C12.0566 100.854 12.4189 101.433 12.6666 102.099C12.8665 102.63 12.9727 103.17 12.9894 103.717C13.006 104.265 12.9373 104.802 12.7874 105.331L12.7853 105.327Z" fill="#BEC91B"/>
<path d="M5.14114 108.468C5.05994 108.468 4.96625 108.441 4.87048 108.358C4.42701 108.07 4.01477 107.7 3.66082 107.271C3.30688 106.84 3.01956 106.334 2.80719 105.766C2.55319 105.085 2.44076 104.383 2.47823 103.686C2.51363 102.988 2.67603 102.324 2.9571 101.714C3.23817 101.102 3.63792 100.546 4.14385 100.063C4.65186 99.5779 5.25565 99.2011 5.94272 98.945C6.6277 98.6889 7.33142 98.5744 8.03306 98.6098C8.73262 98.6431 9.40095 98.8013 10.0214 99.0803C10.6398 99.3593 11.1998 99.757 11.6849 100.259C12.17 100.763 12.5469 101.362 12.8009 102.045C13.0049 102.589 13.1153 103.149 13.1319 103.709C13.1486 104.267 13.0778 104.82 12.9258 105.36C12.8883 105.541 12.8071 105.657 12.6843 105.703C12.6198 105.728 12.551 105.734 12.4823 105.724C12.4303 105.716 12.3887 105.709 12.3533 105.701L11.8369 105.593C11.6495 105.539 11.5434 105.46 11.4996 105.347L11.4892 105.26V105.195C11.4851 105.137 11.4934 105.074 11.51 104.997C11.6162 104.602 11.6641 104.194 11.6537 103.779C11.6433 103.369 11.5683 102.972 11.4288 102.599C11.229 102.064 10.9437 101.604 10.5835 101.237C10.2213 100.869 9.81111 100.581 9.36139 100.386C8.91168 100.188 8.42865 100.082 7.9248 100.067C7.41887 100.053 6.92335 100.136 6.44032 100.317C5.93439 100.507 5.493 100.786 5.12865 101.148C4.76221 101.512 4.47489 101.926 4.2771 102.378C4.07931 102.832 3.96688 103.317 3.94606 103.819C3.92524 104.319 4.00227 104.812 4.17925 105.283C4.29376 105.589 4.44991 105.882 4.64354 106.151C4.83716 106.419 5.11615 106.701 5.47634 106.984C5.54921 107.05 5.63041 107.109 5.7241 107.161C5.85944 107.236 5.94272 107.317 5.97603 107.408C6.02183 107.531 5.99268 107.667 5.8865 107.814L5.50757 108.291C5.43262 108.366 5.35975 108.412 5.28272 108.441C5.24316 108.456 5.19527 108.468 5.14322 108.468H5.14114ZM7.79155 98.8867C7.20442 98.8867 6.61521 98.995 6.03849 99.2115C5.3889 99.4551 4.81634 99.8111 4.33748 100.269C3.85653 100.729 3.47969 101.254 3.21319 101.835C2.94669 102.414 2.7947 103.042 2.76139 103.705C2.72808 104.365 2.83218 105.027 3.07369 105.672C3.27565 106.211 3.54631 106.69 3.88152 107.096C4.21672 107.502 4.60814 107.854 5.0412 108.137C5.11407 108.197 5.15155 108.193 5.18278 108.181C5.22442 108.164 5.26398 108.139 5.29937 108.106L5.66164 107.648C5.7012 107.592 5.72202 107.54 5.71161 107.513C5.71161 107.508 5.69287 107.471 5.58669 107.41C5.47218 107.348 5.37432 107.277 5.29313 107.202C4.92253 106.909 4.62272 106.609 4.41451 106.32C4.20631 106.03 4.03767 105.716 3.91483 105.385C3.72536 104.879 3.64208 104.35 3.66499 103.811C3.68789 103.274 3.80656 102.753 4.01893 102.268C4.2313 101.783 4.53735 101.339 4.92877 100.95C5.32227 100.559 5.79697 100.259 6.34038 100.055C6.85672 99.8611 7.39388 99.7736 7.93105 99.7882C8.47029 99.8049 8.98871 99.9194 9.47174 100.132C9.95477 100.342 10.3962 100.65 10.7834 101.046C11.1707 101.441 11.4767 101.933 11.6912 102.507C11.8411 102.909 11.9223 103.338 11.9327 103.779C11.9431 104.221 11.891 104.656 11.7786 105.072C11.764 105.131 11.762 105.168 11.764 105.191V105.262C11.7807 105.274 11.814 105.299 11.8994 105.324L12.4095 105.43C12.4407 105.439 12.4761 105.443 12.5177 105.451C12.5406 105.453 12.5615 105.451 12.5802 105.445C12.5989 105.439 12.6281 105.397 12.6468 105.303V105.293C12.7946 104.781 12.8613 104.254 12.8467 103.723C12.8321 103.194 12.7259 102.666 12.5323 102.149C12.2908 101.504 11.9369 100.935 11.4767 100.461C11.0166 99.9839 10.4857 99.6092 9.90064 99.3447C9.31351 99.0803 8.67849 98.9304 8.01641 98.8971C7.94146 98.893 7.8665 98.8909 7.79155 98.8909V98.8867Z" fill="#BEC91B"/>
<path fill-rule="evenodd" clip-rule="evenodd" d="M11.4144 121.84C11.531 122.029 11.658 122.079 11.7621 122.079V122.077C11.8474 122.077 11.9162 122.044 11.9495 122.023C11.9682 122.013 12.0036 121.986 12.0536 121.942L18.1102 113.576C18.1476 113.526 18.181 113.464 18.2122 113.381C18.2538 113.268 18.233 113.141 18.1476 113.004L17.9415 112.671C17.8499 112.523 17.7416 112.444 17.6209 112.438C17.5397 112.433 17.471 112.435 17.4127 112.446C17.344 112.456 17.2149 112.477 17.0254 112.508C16.838 112.54 16.5424 112.587 16.1406 112.652C16.028 112.67 15.902 112.69 15.7626 112.712C15.4016 112.77 14.9505 112.842 14.4083 112.929C13.9917 112.996 13.5142 113.073 12.9757 113.16C12.5427 113.23 12.0702 113.306 11.558 113.389C10.4088 113.576 8.99299 113.808 7.32113 114.084C7.27949 114.089 7.24202 114.099 7.22952 114.109C7.17747 114.128 7.13167 114.151 7.09419 114.174C7.0234 114.218 6.80479 114.388 7.01299 114.724L7.31905 115.219C7.40233 115.354 7.57306 115.506 7.89369 115.463L9.84038 115.107L12.3284 119.129L11.1458 120.739C10.9959 120.928 10.9834 121.145 11.1083 121.347L11.4144 121.84ZM13.2445 117.874L11.379 114.859H11.3811L16.1052 114.028L13.2445 117.874Z" fill="#C1F0A4"/>
<path fill-rule="evenodd" clip-rule="evenodd" d="M20.0391 131.051C20.2056 131.078 20.3722 131.091 20.5388 131.091H20.5429C20.8219 131.091 21.103 131.053 21.3778 130.978C21.8192 130.86 22.2335 130.624 22.6124 130.283C22.9893 129.944 23.2246 129.569 23.312 129.169C23.3953 128.782 23.3974 128.374 23.3162 127.959C23.2371 127.553 23.1017 127.139 22.9143 126.733C22.729 126.333 22.5396 125.94 22.3501 125.571C22.2169 125.303 22.0878 125.032 21.9629 124.759C21.84 124.493 21.7484 124.235 21.688 123.993C21.6297 123.76 21.6152 123.541 21.6464 123.342C21.6755 123.152 21.7588 122.998 21.9046 122.867C22.0378 122.746 22.196 122.654 22.3793 122.594C22.5604 122.534 22.7582 122.515 22.9685 122.54C23.1808 122.565 23.4099 122.644 23.6472 122.773C23.8887 122.904 24.1323 123.108 24.3738 123.375C24.5571 123.577 24.7028 123.791 24.8048 124.014C24.9089 124.239 24.9901 124.466 25.0422 124.684C25.0942 124.907 25.1275 125.12 25.1421 125.315C25.1546 125.515 25.1608 125.688 25.1608 125.83C25.1525 125.996 25.1858 126.117 25.2608 126.2C25.3232 126.269 25.419 126.306 25.5439 126.313L26.1123 126.348C26.2518 126.358 26.3642 126.321 26.4475 126.246C26.5142 126.188 26.5537 126.096 26.5704 125.971L26.6037 125.703C26.6266 125.145 26.535 124.564 26.3351 123.974C26.1311 123.383 25.8396 122.873 25.4669 122.461C25.1088 122.065 24.7236 121.745 24.3259 121.514C23.9241 121.278 23.514 121.128 23.108 121.066C22.6978 121.003 22.296 121.03 21.9129 121.147C21.5298 121.264 21.1717 121.472 20.849 121.763C20.3056 122.255 20.0682 122.871 20.1411 123.593C20.2119 124.287 20.5221 125.163 21.0613 126.198C21.2279 126.519 21.3861 126.831 21.536 127.139C21.6797 127.437 21.7859 127.722 21.8525 127.991C21.9171 128.249 21.9316 128.492 21.9004 128.711C21.8692 128.917 21.7651 129.1 21.5798 129.267C21.3612 129.467 21.1155 129.588 20.8552 129.627C20.5846 129.667 20.3139 129.65 20.0474 129.575C19.7747 129.498 19.5102 129.375 19.2625 129.209C19.0106 129.04 18.7919 128.855 18.6129 128.657C18.5109 128.547 18.4068 128.393 18.3027 128.199C18.1965 128.001 18.0986 127.778 18.0133 127.533C17.9279 127.287 17.8613 127.02 17.8134 126.739C17.7676 126.46 17.7551 126.181 17.7759 125.902L17.7842 125.742C17.7926 125.59 17.7384 125.496 17.6905 125.444C17.6218 125.369 17.5344 125.319 17.4178 125.294L16.8619 125.222C16.6808 125.188 16.5663 125.253 16.4996 125.311C16.4288 125.376 16.3789 125.48 16.3476 125.634C16.2102 126.358 16.2519 127.07 16.4726 127.753C16.6912 128.432 17.0472 129.048 17.5302 129.581C17.8967 129.985 18.2964 130.316 18.7232 130.566C19.1521 130.816 19.5956 130.98 20.0391 131.051Z" fill="#BEC91B"/>
<path fill-rule="evenodd" clip-rule="evenodd" d="M31.6803 141.821C31.7969 141.908 31.8968 141.939 31.978 141.939H31.9759C32.1217 141.939 32.2112 141.841 32.2445 141.798C32.257 141.781 32.2799 141.742 32.3111 141.683L34.9303 131.694C34.947 131.633 34.9553 131.563 34.9553 131.473C34.9532 131.354 34.8866 131.244 34.7575 131.144L34.4452 130.909C34.3057 130.803 34.1787 130.767 34.0621 130.807C33.9851 130.834 33.9205 130.861 33.8726 130.89C33.8123 130.925 33.6998 130.992 33.5353 131.09C33.3709 131.188 33.1127 131.34 32.7608 131.544C32.4069 131.75 31.903 132.043 31.2451 132.429C30.9162 132.622 30.5433 132.841 30.1267 133.085C29.7126 133.328 29.2553 133.597 28.755 133.89C27.7515 134.479 26.5148 135.208 25.0553 136.072C25.022 136.089 24.9949 136.11 24.972 136.137C24.9345 136.172 24.9033 136.205 24.8783 136.239C24.8263 136.305 24.6868 136.543 25.0011 136.78L25.4654 137.13C25.5924 137.226 25.8027 137.307 26.09 137.149L27.7765 136.114L31.5512 138.962L31.0307 140.89C30.9599 141.121 31.0265 141.327 31.216 141.471L31.6803 141.821ZM29.123 135.328L31.9509 137.463L33.2251 132.843L29.123 135.328Z" fill="#C1F0A4"/>
<path fill-rule="evenodd" clip-rule="evenodd" d="M41.674 147.3C41.8947 147.336 42.1113 147.352 42.3236 147.352L42.3257 147.361C42.5839 147.361 42.8358 147.334 43.0773 147.282C43.5187 147.184 43.9289 146.998 44.2953 146.728C44.6617 146.455 44.9636 146.086 45.1926 145.63C45.4196 145.177 45.5029 144.744 45.4383 144.34C45.3759 143.948 45.2301 143.567 45.0032 143.211C44.7804 142.861 44.5056 142.526 44.1829 142.216C43.8601 141.904 43.5416 141.608 43.2355 141.337C43.0148 141.135 42.7962 140.929 42.5797 140.721C42.3694 140.519 42.1904 140.313 42.0446 140.109C41.9051 139.911 41.8135 139.713 41.7698 139.516C41.7282 139.33 41.7511 139.155 41.8385 138.981C41.9197 138.82 42.0342 138.677 42.182 138.554C42.3299 138.433 42.5089 138.343 42.713 138.289C42.9212 138.235 43.1627 138.225 43.4313 138.26C43.7019 138.296 44.0038 138.395 44.3265 138.558C44.5701 138.681 44.7825 138.829 44.9595 138.997C45.1385 139.17 45.2947 139.351 45.4237 139.536C45.5528 139.722 45.6611 139.907 45.7465 140.086C45.8318 140.269 45.9005 140.428 45.9505 140.559C46.0025 140.717 46.0775 140.819 46.1774 140.869C46.2607 140.908 46.3627 140.908 46.4835 140.869L47.0248 140.696C47.1581 140.652 47.2497 140.579 47.2996 140.48C47.3392 140.398 47.3455 140.301 47.3142 140.178L47.2476 139.915C47.0665 139.386 46.7708 138.876 46.369 138.402C45.9672 137.925 45.5091 137.556 45.0115 137.307C44.5347 137.067 44.06 136.909 43.6041 136.838C43.146 136.765 42.7088 136.774 42.307 136.863C41.9031 136.953 41.5366 137.125 41.2222 137.373C40.9058 137.621 40.6476 137.944 40.454 138.333C40.125 138.989 40.1271 139.649 40.4581 140.294C40.7767 140.913 41.3825 141.616 42.2632 142.385C42.536 142.622 42.7962 142.857 43.0482 143.088C43.2897 143.313 43.4937 143.54 43.6519 143.765C43.806 143.982 43.908 144.202 43.958 144.419C44.0059 144.623 43.9747 144.831 43.8622 145.054C43.729 145.318 43.5458 145.52 43.3167 145.651C43.0815 145.787 42.8212 145.87 42.5464 145.897C42.2653 145.924 41.9738 145.905 41.6824 145.841C41.3888 145.774 41.1181 145.68 40.8787 145.562C40.7454 145.495 40.5914 145.389 40.4227 145.247C40.252 145.104 40.0792 144.931 39.9106 144.733C39.7419 144.537 39.5816 144.313 39.4359 144.067C39.2922 143.825 39.1777 143.571 39.0965 143.303L39.0465 143.149C39.009 143.034 38.9445 142.953 38.8529 142.907C38.7613 142.861 38.6613 142.847 38.5448 142.866L37.9993 142.999C37.8181 143.034 37.7348 143.136 37.6953 143.213C37.6536 143.299 37.6453 143.413 37.6703 143.569C37.8056 144.294 38.1034 144.943 38.5572 145.499C39.007 146.051 39.5629 146.495 40.2062 146.817C40.6913 147.059 41.1848 147.223 41.674 147.3Z" fill="#BEC91B"/>
<path fill-rule="evenodd" clip-rule="evenodd" d="M62.4211 153.794C62.6855 153.833 62.95 153.854 63.2102 153.854H63.2123C63.6412 153.854 64.0659 153.8 64.4761 153.692C65.134 153.521 65.7378 153.234 66.2687 152.838C66.7975 152.443 67.2472 151.949 67.6054 151.37C67.9635 150.789 68.1987 150.142 68.3028 149.444C68.409 148.73 68.3799 148.033 68.2133 147.369C68.0467 146.705 67.7657 146.101 67.3784 145.574C66.9912 145.045 66.4998 144.595 65.921 144.237C65.3401 143.879 64.6822 143.642 63.9618 143.534L60.9013 143.073C60.616 143.032 60.4286 143.175 60.3849 143.469L58.9775 152.844C58.9546 152.998 58.9858 153.119 59.0732 153.202C59.1461 153.271 59.2419 153.317 59.3606 153.334L62.4211 153.794ZM62.7147 152.384L60.5556 152.059L60.5598 152.057L61.6716 144.641L63.7515 144.954C64.2491 145.028 64.7134 145.187 65.1319 145.426C65.5504 145.666 65.9106 145.972 66.2 146.336C66.4894 146.7 66.7018 147.125 66.8308 147.602C66.9578 148.079 66.9828 148.599 66.8996 149.151C66.8246 149.642 66.6622 150.107 66.4144 150.531C66.1667 150.958 65.8523 151.327 65.4838 151.628C65.1153 151.928 64.6905 152.153 64.22 152.293C63.7495 152.434 63.2435 152.463 62.7147 152.384Z" fill="#C1F0A4"/>
<path fill-rule="evenodd" clip-rule="evenodd" d="M74.337 154.365C74.3474 154.623 74.5078 154.773 74.7638 154.773V154.777H74.793L81.343 154.49C81.6179 154.477 81.774 154.305 81.7615 154.03L81.7365 153.472C81.722 153.174 81.5471 153.016 81.2639 153.024L75.7341 153.266L75.5925 150.014L79.921 149.824C80.1001 149.816 80.1979 149.73 80.2479 149.66C80.3145 149.568 80.3457 149.464 80.3395 149.351L80.3145 148.793C80.3083 148.642 80.2562 148.527 80.1625 148.454C80.073 148.385 79.9689 148.354 79.8565 148.358L75.5279 148.548L75.4093 145.827L80.885 145.587C81.062 145.579 81.1619 145.496 81.216 145.427C81.2889 145.333 81.3222 145.229 81.318 145.112L81.2931 144.557C81.2868 144.411 81.2431 144.3 81.1598 144.223C81.0786 144.151 80.9662 144.117 80.835 144.121L74.3391 144.407C74.2038 144.413 74.0976 144.457 74.0247 144.536C73.9498 144.619 73.9144 144.734 73.9206 144.879L74.337 154.365Z" fill="#BEC91B"/>
<path fill-rule="evenodd" clip-rule="evenodd" d="M99.6641 150.139C99.7578 150.145 99.8494 150.148 99.9431 150.148V150.143C100.547 150.143 101.153 150.033 101.744 149.814C102.312 149.604 102.82 149.319 103.251 148.967C103.682 148.617 104.053 148.207 104.345 147.764C104.482 147.605 104.467 147.453 104.43 147.353C104.401 147.276 104.357 147.206 104.282 147.129L103.807 146.748C103.662 146.641 103.526 146.61 103.401 146.656C103.308 146.691 103.226 146.773 103.152 146.908C103.099 147 103.043 147.081 102.975 147.154C102.687 147.512 102.406 147.791 102.138 147.982C101.869 148.176 101.575 148.33 101.267 148.444C100.797 148.619 100.307 148.694 99.8036 148.671C99.2998 148.646 98.8147 148.534 98.3629 148.334C97.909 148.134 97.4968 147.847 97.1345 147.478C96.7722 147.112 96.4953 146.668 96.3079 146.163C96.1309 145.682 96.0497 145.182 96.0664 144.678C96.0831 144.176 96.1934 143.693 96.3912 143.244C96.5911 142.794 96.8784 142.384 97.249 142.024C97.6196 141.665 98.0776 141.382 98.6148 141.184C98.9875 141.049 99.3831 140.974 99.7953 140.966C100.214 140.96 100.618 141.007 101.011 141.116C101.086 141.134 101.151 141.141 101.209 141.141L101.317 141.137L101.361 141.128C101.473 141.087 101.555 140.98 101.609 140.793L101.719 140.277L101.721 140.266C101.727 140.235 101.734 140.195 101.742 140.15C101.752 140.081 101.744 140.012 101.721 139.948C101.675 139.825 101.561 139.742 101.378 139.704C100.843 139.548 100.287 139.477 99.7287 139.49C99.1686 139.504 98.6086 139.613 98.0631 139.814C97.3802 140.066 96.7764 140.439 96.2725 140.922C95.7687 141.405 95.371 141.963 95.0879 142.581C94.8068 143.2 94.6444 143.868 94.609 144.568C94.5736 145.267 94.6839 145.971 94.938 146.658C95.192 147.345 95.5646 147.953 96.0477 148.461C96.5307 148.969 97.0845 149.371 97.6945 149.654C98.3046 149.937 98.9687 150.1 99.6641 150.139Z" fill="#C1F0A4"/>
<path fill-rule="evenodd" clip-rule="evenodd" d="M110.39 145.713C110.415 145.72 110.44 145.722 110.465 145.722L110.461 145.716C110.542 145.716 110.631 145.686 110.725 145.628L111.221 145.324C111.358 145.241 111.51 145.074 111.466 144.75L111.114 142.803L115.141 140.323L116.748 141.51C116.938 141.658 117.154 141.672 117.356 141.547L117.852 141.243C117.964 141.175 118.035 141.098 118.07 141.012C118.1 140.944 118.116 140.835 118.039 140.71C118.029 140.692 118 140.656 117.956 140.604L109.603 134.531C109.553 134.496 109.49 134.46 109.407 134.429C109.297 134.387 109.17 134.408 109.03 134.493L108.697 134.7C108.549 134.791 108.47 134.899 108.464 135.02C108.46 135.106 108.462 135.174 108.472 135.228C108.483 135.297 108.503 135.426 108.535 135.616C108.566 135.805 108.614 136.101 108.676 136.503C108.729 136.84 108.802 137.303 108.894 137.889C108.912 138 108.93 138.115 108.949 138.235C109.039 138.807 109.149 139.493 109.276 140.293C109.317 140.546 109.359 140.811 109.403 141.087C109.582 142.206 109.806 143.582 110.07 145.202L110.09 145.326C110.094 145.364 110.102 145.397 110.119 145.426C110.136 145.474 110.157 145.516 110.18 145.551C110.246 145.659 110.329 145.699 110.39 145.713ZM110.873 141.268L110.05 136.542L113.892 139.409L110.873 141.268Z" fill="#BEC91B"/>
<path fill-rule="evenodd" clip-rule="evenodd" d="M123.462 136.936H123.468L123.46 136.938C123.566 136.938 123.67 136.89 123.766 136.796L124.174 136.401C124.38 136.201 124.386 135.972 124.201 135.78L119.695 130.142L126.539 133.042C126.816 133.155 126.972 133.082 127.055 133.001L127.434 132.634C127.528 132.545 127.615 132.378 127.501 132.11L124.811 125.181L130.31 129.84C130.501 130.038 130.732 130.042 130.93 129.851L131.338 129.455C131.542 129.255 131.55 129.024 131.344 128.814L124.036 122.695C123.955 122.611 123.855 122.563 123.739 122.557C123.618 122.551 123.508 122.595 123.416 122.684L122.785 123.296C122.698 123.382 122.577 123.565 122.729 123.833C123.237 125.11 123.743 126.382 124.245 127.65C124.417 128.084 124.59 128.518 124.762 128.953C125.052 129.684 125.343 130.416 125.635 131.148L118.425 128.025C118.14 127.868 117.953 127.985 117.867 128.068L117.266 128.651C117.176 128.737 117.126 128.841 117.116 128.957C117.105 129.082 117.149 129.197 117.23 129.28C118.225 130.538 119.21 131.787 120.187 133.026C121.163 134.267 122.148 135.514 123.152 136.784C123.249 136.882 123.354 136.936 123.462 136.936Z" fill="#C1F0A4"/>
<path fill-rule="evenodd" clip-rule="evenodd" d="M135.65 123.294C135.741 123.354 135.831 123.383 135.916 123.383L135.918 123.381C136.049 123.381 136.168 123.311 136.262 123.173L136.578 122.703C136.655 122.588 136.682 122.476 136.661 122.37C136.641 122.263 136.572 122.17 136.457 122.093L133.663 120.213L135.004 118.222C135.256 117.849 135.423 117.443 135.498 117.019C135.573 116.594 135.566 116.176 135.479 115.772C135.391 115.368 135.229 114.983 134.992 114.627C134.754 114.268 134.452 113.964 134.092 113.723C133.724 113.475 133.324 113.307 132.899 113.219C132.474 113.132 132.054 113.125 131.644 113.2C131.234 113.275 130.842 113.431 130.474 113.665C130.105 113.9 129.789 114.21 129.533 114.591L127.661 117.373C127.501 117.61 127.551 117.841 127.796 118.008L135.65 123.294ZM132.468 119.409L129.408 117.35L129.406 117.348L130.724 115.391C130.863 115.182 131.038 115.014 131.242 114.889C131.45 114.762 131.673 114.676 131.902 114.635C132.131 114.595 132.37 114.597 132.61 114.641C132.847 114.685 133.07 114.776 133.27 114.912C133.472 115.047 133.638 115.218 133.769 115.422C133.903 115.626 133.992 115.847 134.038 116.08C134.084 116.315 134.088 116.552 134.051 116.79C134.013 117.023 133.926 117.246 133.786 117.452L132.468 119.409Z" fill="#BEC91B"/>
<path fill-rule="evenodd" clip-rule="evenodd" d="M138.376 110.065C139.03 110.335 139.702 110.471 140.379 110.471V110.473H140.454C141.155 110.462 141.826 110.325 142.446 110.069C143.069 109.811 143.637 109.434 144.139 108.949C144.641 108.462 145.036 107.872 145.313 107.2C145.592 106.519 145.728 105.819 145.715 105.12C145.703 104.422 145.563 103.752 145.305 103.127C145.047 102.503 144.668 101.932 144.183 101.435C143.695 100.935 143.104 100.539 142.428 100.26C141.743 99.9794 141.043 99.8378 140.331 99.8482C139.627 99.8565 138.953 99.9919 138.328 100.254C137.703 100.517 137.133 100.895 136.633 101.381C136.132 101.868 135.736 102.457 135.459 103.129C135.182 103.802 135.049 104.497 135.061 105.197C135.074 105.894 135.215 106.565 135.478 107.191C135.742 107.816 136.123 108.389 136.615 108.888C137.106 109.39 137.699 109.786 138.376 110.065ZM140.337 101.316H140.387C140.876 101.316 141.366 101.416 141.84 101.612C142.332 101.814 142.765 102.101 143.123 102.463C143.483 102.828 143.764 103.242 143.958 103.696C144.151 104.15 144.256 104.637 144.264 105.141C144.272 105.645 144.176 106.148 143.974 106.636C143.773 107.125 143.487 107.554 143.125 107.908C142.763 108.264 142.346 108.539 141.888 108.724C141.43 108.909 140.939 109.005 140.427 109.011C139.923 109.005 139.409 108.915 138.917 108.713C138.428 108.511 137.999 108.226 137.643 107.864C137.287 107.502 137.01 107.087 136.821 106.636C136.631 106.184 136.531 105.697 136.523 105.189C136.515 104.681 136.615 104.175 136.814 103.687C137.014 103.2 137.3 102.776 137.66 102.424C138.02 102.07 138.434 101.797 138.888 101.61C139.342 101.422 139.829 101.322 140.337 101.316Z" fill="#C1F0A4"/>
</svg>
